<svg xmlns="http://www.w3.org/2000/svg" xmlns:xlink="http://www.w3.org/1999/xlink" xmlns:lucid="lucid" width="2563" height="3826"><g transform="translate(-1320 1943)" lucid:page-tab-id="0_0"><path d="M1420-1934a6 6 0 0 1 6-6h2428a6 6 0 0 1 6 6v1108a6 6 0 0 1-6 6H1426a6 6 0 0 1-6-6z" stroke="#000" stroke-opacity="0" stroke-width="6" fill="#fff0fb"/><path d="M3160-1793a6 6 0 0 1 6-6h528a6 6 0 0 1 6 6v167a6 6 0 0 1-6 6h-528a6 6 0 0 1-6-6z" stroke="#3a414a" stroke-width="4" fill="#fff"/><use xlink:href="#a" transform="matrix(1,0,0,1,3165,-1794) translate(31.22222222222223 95.47916666666667)"/><use xlink:href="#b" transform="matrix(1,0,0,1,3165,-1794) translate(268.1111111111111 95.47916666666667)"/><path d="M2420-1146a6 6 0 0 1 6-6h528a6 6 0 0 1 6 6v254a6 6 0 0 1-6 6h-528a6 6 0 0 1-6-6z" stroke="#3a414a" stroke-width="4" fill="#fff"/><use xlink:href="#c" transform="matrix(1,0,0,1,2425,-1147) translate(139.37037037037035 50.66666666666667)"/><use xlink:href="#d" transform="matrix(1,0,0,1,2425,-1147) translate(281.2962962962963 50.66666666666667)"/><use xlink:href="#e" transform="matrix(1,0,0,1,2425,-1147) translate(143.1037037037037 114.66666666666667)"/><use xlink:href="#f" transform="matrix(1,0,0,1,2425,-1147) translate(252.0814814814815 114.66666666666667)"/><use xlink:href="#g" transform="matrix(1,0,0,1,2425,-1147) translate(298.0074074074074 114.66666666666667)"/><use xlink:href="#h" transform="matrix(1,0,0,1,2425,-1147) translate(157.3259259259259 178.66666666666669)"/><use xlink:href="#f" transform="matrix(1,0,0,1,2425,-1147) translate(270.4518518518518 178.66666666666669)"/><use xlink:href="#i" transform="matrix(1,0,0,1,2425,-1147) translate(316.37777777777774 178.66666666666669)"/><use xlink:href="#j" transform="matrix(1,0,0,1,2425,-1147) translate(99.88888888888886 242.66666666666669)"/><use xlink:href="#k" transform="matrix(1,0,0,1,2425,-1147) translate(147.14814814814812 242.66666666666669)"/><use xlink:href="#l" transform="matrix(1,0,0,1,2425,-1147) translate(193.07407407407405 242.66666666666669)"/><use xlink:href="#m" transform="matrix(1,0,0,1,2425,-1147) translate(237.5185185185185 242.66666666666669)"/><use xlink:href="#n" transform="matrix(1,0,0,1,2425,-1147) translate(341.22222222222223 242.66666666666669)"/><path d="M1740-1146a6 6 0 0 1 6-6h548a6 6 0 0 1 6 6v254a6 6 0 0 1-6 6h-548a6 6 0 0 1-6-6z" stroke="#3a414a" stroke-width="4" fill="#fff"/><use xlink:href="#o" transform="matrix(1,0,0,1,1745,-1147) translate(161.2222222222222 50.66666666666667)"/><use xlink:href="#d" transform="matrix(1,0,0,1,1745,-1147) translate(279.44444444444446 50.66666666666667)"/><use xlink:href="#e" transform="matrix(1,0,0,1,1745,-1147) translate(153.1037037037037 114.66666666666667)"/><use xlink:href="#f" transform="matrix(1,0,0,1,1745,-1147) translate(262.0814814814815 114.66666666666667)"/><use xlink:href="#p" transform="matrix(1,0,0,1,1745,-1147) translate(308.0074074074074 114.66666666666667)"/><use xlink:href="#h" transform="matrix(1,0,0,1,1745,-1147) translate(180.65925925925924 178.66666666666669)"/><use xlink:href="#f" transform="matrix(1,0,0,1,1745,-1147) translate(293.7851851851852 178.66666666666669)"/><use xlink:href="#q" transform="matrix(1,0,0,1,1745,-1147) translate(339.7111111111111 178.66666666666669)"/><use xlink:href="#j" transform="matrix(1,0,0,1,1745,-1147) translate(146.92592592592592 242.66666666666669)"/><use xlink:href="#k" transform="matrix(1,0,0,1,1745,-1147) translate(194.1851851851852 242.66666666666669)"/><use xlink:href="#r" transform="matrix(1,0,0,1,1745,-1147) translate(240.11111111111111 242.66666666666669)"/><use xlink:href="#s" transform="matrix(1,0,0,1,1745,-1147) translate(314.1851851851852 242.66666666666669)"/><path d="M1440-794a6 6 0 0 1 6-6h2428a6 6 0 0 1 6 6v2668a6 6 0 0 1-6 6H1446a6 6 0 0 1-6-6z" stroke="#000" stroke-opacity="0" stroke-width="6" fill="#fff3d9"/><path d="M1360-1894a6 6 0 0 1 6-6h648a6 6 0 0 1 6 6v78a6 6 0 0 1-6 6h-648a6 6 0 0 1-6-6z" fill="none"/><use xlink:href="#t" transform="matrix(1,0,0,1,1360,-1900) translate(102.51851851851853 55.66666666666667)"/><use xlink:href="#u" transform="matrix(1,0,0,1,1360,-1900) translate(232.5925925925926 55.66666666666667)"/><path d="M3100 1521a6 6 0 0 1 6-6h508a6 6 0 0 1 6 6v333a6 6 0 0 1-6 6h-508a6 6 0 0 1-6-6z" stroke="#3a414a" stroke-width="4" fill="#fff"/><use xlink:href="#v" transform="matrix(1,0,0,1,3105,1520) translate(18.555555555555515 115.94791666666667)"/><use xlink:href="#w" transform="matrix(1,0,0,1,3105,1520) translate(305.2222222222223 115.94791666666667)"/><use xlink:href="#e" transform="matrix(1,0,0,1,3105,1520) translate(147.9185185185185 179.94791666666669)"/><use xlink:href="#f" transform="matrix(1,0,0,1,3105,1520) translate(256.89629629629627 179.94791666666669)"/><use xlink:href="#x" transform="matrix(1,0,0,1,3105,1520) translate(302.8222222222222 179.94791666666669)"/><use xlink:href="#j" transform="matrix(1,0,0,1,3105,1520) translate(149.14814814814815 243.94791666666669)"/><use xlink:href="#k" transform="matrix(1,0,0,1,3105,1520) translate(196.40740740740742 243.94791666666669)"/><use xlink:href="#y" transform="matrix(1,0,0,1,3105,1520) translate(242.33333333333334 243.94791666666669)"/><path d="M1320-774a6 6 0 0 1 6-6h648a6 6 0 0 1 6 6v78a6 6 0 0 1-6 6h-648a6 6 0 0 1-6-6z" fill="none"/><use xlink:href="#t" transform="matrix(1,0,0,1,1320,-780) translate(143.85185185185182 55.66666666666667)"/><use xlink:href="#z" transform="matrix(1,0,0,1,1320,-780) translate(273.92592592592587 55.66666666666667)"/><path d="M1960 146a6 6 0 0 1 6-6h688a6 6 0 0 1 6 6v119.12a6 6 0 0 1-6 6h-688a6 6 0 0 1-6-6z" stroke="#3a414a" stroke-width="4" fill="#fff"/><use xlink:href="#A" transform="matrix(1,0,0,1,1965,145) translate(38.99999999999994 46.47916666666667)"/><use xlink:href="#B" transform="matrix(1,0,0,1,1965,145) translate(260.92592592592587 46.47916666666667)"/><use xlink:href="#C" transform="matrix(1,0,0,1,1965,145) translate(541.6666666666667 46.47916666666667)"/><use xlink:href="#D" transform="matrix(1,0,0,1,1965,145) translate(204.33333333333331 110.47916666666667)"/><use xlink:href="#f" transform="matrix(1,0,0,1,1965,145) translate(247.14814814814815 110.47916666666667)"/><use xlink:href="#E" transform="matrix(1,0,0,1,1965,145) translate(293.0740740740741 110.47916666666667)"/><use xlink:href="#F" transform="matrix(1,0,0,1,1965,145) translate(396.7777777777778 110.47916666666667)"/><path d="M1960 946a6 6 0 0 1 6-6h688a6 6 0 0 1 6 6v168a6 6 0 0 1-6 6h-688a6 6 0 0 1-6-6z" stroke="#3a414a" stroke-width="4" fill="#fff"/><use xlink:href="#G" transform="matrix(1,0,0,1,1965,945) translate(19.148148148148096 42.66666666666667)"/><use xlink:href="#H" transform="matrix(1,0,0,1,1965,945) translate(144.3333333333333 42.66666666666667)"/><use xlink:href="#I" transform="matrix(1,0,0,1,1965,945) translate(209.22222222222217 42.66666666666667)"/><use xlink:href="#J" transform="matrix(1,0,0,1,1965,945) translate(413.51851851851853 42.66666666666667)"/><use xlink:href="#K" transform="matrix(1,0,0,1,1965,945) translate(279.96296296296293 106.66666666666667)"/><use xlink:href="#L" transform="matrix(1,0,0,1,1965,945) translate(345 170.66666666666669)"/><path d="M2310 47v63" stroke="#3a414a" stroke-width="10" fill="none"/><path d="M2314.97 47.13h-9.94V42h9.94z" stroke="#3a414a" stroke-width=".05" fill="#3a414a"/><path d="M2310 128l-7.5-13h15z" stroke="#3a414a" stroke-width="10" fill="#3a414a"/><path d="M2310 278.1V350" stroke="#3a414a" stroke-width="10" fill="none"/><path d="M2314.97 278.24h-9.94v-5.13h9.94z" stroke="#3a414a" stroke-width=".05" fill="#3a414a"/><path d="M2310 368l-7.5-13h15z" stroke="#3a414a" stroke-width="10" fill="#3a414a"/><path d="M2310 845v65" stroke="#3a414a" stroke-width="10" fill="none"/><path d="M2314.97 845.13h-9.94V840h9.94z" stroke="#3a414a" stroke-width=".05" fill="#3a414a"/><path d="M2310 928l-7.5-13h15z" stroke="#3a414a" stroke-width="10" fill="#3a414a"/><path d="M3430.13-1613l1.85 72.02" stroke="#3a414a" stroke-width="10" fill="none"/><path d="M3435.1-1613l-9.94.25-.14-5.25h9.96z" stroke="#3a414a" stroke-width=".05" fill="#3a414a"/><path d="M3432.44-1523l-7.83-12.8 15-.38z" stroke="#3a414a" stroke-width="10" fill="#3a414a"/><path d="M3362.4-1325l-2.07 175" stroke="#3a414a" stroke-width="10" fill="none"/><path d="M3367.38-1324.8l-9.95-.13.06-5.07h9.94z" stroke="#3a414a" stroke-width=".05" fill="#3a414a"/><path d="M3360.12-1132l-7.35-13.08 15 .18z" stroke="#3a414a" stroke-width="10" fill="#3a414a"/><path d="M3359.98-911l-9.85 2121" stroke="#3a414a" stroke-width="10" fill="none"/><path d="M3364.95-910.85l-9.95-.04.03-5.1h9.94z" stroke="#3a414a" stroke-width=".05" fill="#3a414a"/><path d="M3350.05 1228l-7.44-13.03 15 .08z" stroke="#3a414a" stroke-width="10" fill="#3a414a"/><path d="M2420-1793a6 6 0 0 1 6-6h528a6 6 0 0 1 6 6v148a6 6 0 0 1-6 6h-528a6 6 0 0 1-6-6z" stroke="#3a414a" stroke-width="4" fill="#fff"/><use xlink:href="#c" transform="matrix(1,0,0,1,2425,-1794) translate(78.7037037037037 84.85416666666667)"/><use xlink:href="#b" transform="matrix(1,0,0,1,2425,-1794) translate(220.62962962962962 84.85416666666667)"/><path d="M1660-1793a6 6 0 0 1 6-6h528a6 6 0 0 1 6 6v148a6 6 0 0 1-6 6h-528a6 6 0 0 1-6-6z" stroke="#3a414a" stroke-width="4" fill="#fff"/><use xlink:href="#o" transform="matrix(1,0,0,1,1665,-1794) translate(90.55555555555554 84.85416666666667)"/><use xlink:href="#b" transform="matrix(1,0,0,1,1665,-1794) translate(208.77777777777777 84.85416666666667)"/><path d="M1540-1505a6 6 0 0 1 6-6h2148a6 6 0 0 1 6 6v167a6 6 0 0 1-6 6H1546a6 6 0 0 1-6-6z" stroke="#3a414a" stroke-width="4" fill="#fff"/><use xlink:href="#M" transform="matrix(1,0,0,1,1545,-1506) translate(334.33333333333314 63.79166666666667)"/><use xlink:href="#N" transform="matrix(1,0,0,1,1545,-1506) translate(558.9259259259258 63.79166666666667)"/><use xlink:href="#O" transform="matrix(1,0,0,1,1545,-1506) translate(626.9259259259258 63.79166666666667)"/><use xlink:href="#P" transform="matrix(1,0,0,1,1545,-1506) translate(813.148148148148 63.79166666666667)"/><use xlink:href="#Q" transform="matrix(1,0,0,1,1545,-1506) translate(937.2962962962962 63.79166666666667)"/><use xlink:href="#R" transform="matrix(1,0,0,1,1545,-1506) translate(1070.3333333333333 63.79166666666667)"/><use xlink:href="#S" transform="matrix(1,0,0,1,1545,-1506) translate(1525.7407407407409 63.79166666666667)"/><use xlink:href="#T" transform="matrix(1,0,0,1,1545,-1506) translate(1587.8148148148148 63.79166666666667)"/><use xlink:href="#U" transform="matrix(1,0,0,1,1545,-1506) translate(1661.8888888888891 63.79166666666667)"/><use xlink:href="#V" transform="matrix(1,0,0,1,1545,-1506) translate(958.2888888888889 127.79166666666667)"/><use xlink:href="#W" transform="matrix(1,0,0,1,1545,-1506) translate(1102.8222222222223 127.79166666666667)"/><path d="M1960 386a6 6 0 0 1 6-6h688a6 6 0 0 1 6 6v446a6 6 0 0 1-6 6h-688a6 6 0 0 1-6-6z" stroke="#3a414a" stroke-width="4" fill="#fff"/><use xlink:href="#X" transform="matrix(1,0,0,1,1965,385) translate(164.85185185185185 49.66666666666667)"/><use xlink:href="#Y" transform="matrix(1,0,0,1,1965,385) translate(436.7037037037037 49.66666666666667)"/><use xlink:href="#Z" transform="matrix(1,0,0,1,1965,385) translate(183.81481481481478 113.66666666666667)"/><use xlink:href="#aa" transform="matrix(1,0,0,1,1965,385) translate(237.14814814814812 113.66666666666667)"/><use xlink:href="#ab" transform="matrix(1,0,0,1,1965,385) translate(378.9259259259259 113.66666666666667)"/><use xlink:href="#ac" transform="matrix(1,0,0,1,1965,385) translate(78.77777777777777 177.66666666666669)"/><use xlink:href="#ad" transform="matrix(1,0,0,1,1965,385) translate(132.11111111111111 177.66666666666669)"/><use xlink:href="#d" transform="matrix(1,0,0,1,1965,385) translate(501.8888888888889 177.66666666666669)"/><use xlink:href="#ae" transform="matrix(1,0,0,1,1965,385) translate(117.37037037037038 241.66666666666669)"/><use xlink:href="#af" transform="matrix(1,0,0,1,1965,385) translate(170.70370370370372 241.66666666666669)"/><use xlink:href="#ag" transform="matrix(1,0,0,1,1965,385) translate(368.7777777777778 241.66666666666669)"/><use xlink:href="#e" transform="matrix(1,0,0,1,1965,385) translate(237.9185185185185 305.6666666666667)"/><use xlink:href="#f" transform="matrix(1,0,0,1,1965,385) translate(346.89629629629627 305.6666666666667)"/><use xlink:href="#ah" transform="matrix(1,0,0,1,1965,385) translate(392.8222222222222 305.6666666666667)"/><use xlink:href="#ai" transform="matrix(1,0,0,1,1965,385) translate(226.95555555555555 369.6666666666667)"/><use xlink:href="#f" transform="matrix(1,0,0,1,1965,385) translate(360.8222222222222 369.6666666666667)"/><use xlink:href="#i" transform="matrix(1,0,0,1,1965,385) translate(406.7481481481482 369.6666666666667)"/><use xlink:href="#aj" transform="matrix(1,0,0,1,1965,385) translate(36.01 433.6666666666667)"/><use xlink:href="#ak" transform="matrix(1,0,0,1,1965,385) translate(72.01 433.6666666666667)"/><use xlink:href="#al" transform="matrix(1,0,0,1,1965,385) translate(108.01 433.6666666666667)"/><use xlink:href="#al" transform="matrix(1,0,0,1,1965,385) translate(144.01 433.6666666666667)"/><use xlink:href="#al" transform="matrix(1,0,0,1,1965,385) translate(180.01 433.6666666666667)"/><use xlink:href="#am" transform="matrix(1,0,0,1,1965,385) translate(216.01 433.6666666666667)"/><use xlink:href="#an" transform="matrix(1,0,0,1,1965,385) translate(230.8248148148148 433.6666666666667)"/><use xlink:href="#ao" transform="matrix(1,0,0,1,1965,385) translate(278.08407407407407 433.6666666666667)"/><use xlink:href="#ap" transform="matrix(1,0,0,1,1965,385) translate(324.01 433.6666666666667)"/><use xlink:href="#aq" transform="matrix(1,0,0,1,1965,385) translate(398.08407407407407 433.6666666666667)"/><path d="M2690-1632v91" stroke="#3a414a" stroke-width="10" fill="none"/><path d="M2694.97-1631.87h-9.94v-5.13h9.94z" stroke="#3a414a" stroke-width=".05" fill="#3a414a"/><path d="M2690-1523l-7.5-13h15z" stroke="#3a414a" stroke-width="10" fill="#3a414a"/><path d="M1930.07-1632l1.26 91" stroke="#3a414a" stroke-width="10" fill="none"/><path d="M1935.05-1631.94l-9.95.14-.07-5.2h9.94z" stroke="#3a414a" stroke-width=".05" fill="#3a414a"/><path d="M1931.58-1523l-7.68-12.88 15-.2z" stroke="#3a414a" stroke-width="10" fill="#3a414a"/><path d="M2691.12-1325l-.16 143.02-9.95-.02.17-143zm-10 72.33v21.34h9.87v-21.34z" stroke="#3a414a" stroke-width=".05" fill="#3a414a"/><path d="M2691.12-1324.87h-9.95v-5.13h9.96z" fill="#3a414a"/><path stroke="#3a414a" stroke-width=".05" fill="#3a414a"/><path d="M2693.48-1176.98l-7.52 12.98-7.48-13z" fill="#3a414a"/><path d="M2702.1-1181.95l-16.15 27.9-16.08-27.93z" stroke="#3a414a" stroke-width=".05" fill="#3a414a"/><g><use xlink:href="#ar" transform="matrix(1,0,0,1,2681.1130406407806,-1252.6666678230933) translate(0 14.222222222222223)"/></g><path d="M2024.66-1182.05l-9.95.12-.55-49.4h9.8v-13.94zm-.8-70.62h-9.8v13.94l-.97-86.2 9.94-.13z" stroke="#3a414a" stroke-width=".05" fill="#3a414a"/><path d="M2023.04-1324.93l-9.95.1-.07-5.17h9.95z" fill="#3a414a"/><path stroke="#3a414a" stroke-width=".05" fill="#3a414a"/><path d="M2019.9-1164l-7.66-12.9 15-.17z" fill="#3a414a"/><path d="M2020-1154.05l-16.43-27.73 32.23-.37z" stroke="#3a414a" stroke-width=".05" fill="#3a414a"/><g><use xlink:href="#ar" transform="matrix(1,0,0,1,2014.0639475465005,-1252.6666526537347) translate(0 14.222222222222223)"/></g><path d="M1960 1521a6 6 0 0 1 6-6h688a6 6 0 0 1 6 6v333a6 6 0 0 1-6 6h-688a6 6 0 0 1-6-6z" stroke="#3a414a" stroke-width="4" fill="#fff"/><g><use xlink:href="#as" transform="matrix(1,0,0,1,1965,1520) translate(1.8888888888889142 47.90104166666667)"/><use xlink:href="#at" transform="matrix(1,0,0,1,1965,1520) translate(218.03703703703704 47.90104166666667)"/><use xlink:href="#au" transform="matrix(1,0,0,1,1965,1520) translate(339.22222222222223 47.90104166666667)"/><use xlink:href="#av" transform="matrix(1,0,0,1,1965,1520) translate(587.6666666666666 47.90104166666667)"/><use xlink:href="#C" transform="matrix(1,0,0,1,1965,1520) translate(290.3333333333333 111.90104166666667)"/><use xlink:href="#aw" transform="matrix(1,0,0,1,1965,1520) translate(235.69629629629628 175.90104166666669)"/><use xlink:href="#ax" transform="matrix(1,0,0,1,1965,1520) translate(349.1185185185185 175.90104166666669)"/><use xlink:href="#x" transform="matrix(1,0,0,1,1965,1520) translate(395.0444444444444 175.90104166666669)"/><use xlink:href="#h" transform="matrix(1,0,0,1,1965,1520) translate(250.65925925925924 239.90104166666669)"/><use xlink:href="#f" transform="matrix(1,0,0,1,1965,1520) translate(363.7851851851852 239.90104166666669)"/><use xlink:href="#ay" transform="matrix(1,0,0,1,1965,1520) translate(409.7111111111111 239.90104166666669)"/><use xlink:href="#j" transform="matrix(1,0,0,1,1965,1520) translate(216.92592592592592 303.9010416666667)"/><use xlink:href="#k" transform="matrix(1,0,0,1,1965,1520) translate(264.1851851851852 303.9010416666667)"/><use xlink:href="#az" transform="matrix(1,0,0,1,1965,1520) translate(310.1111111111111 303.9010416666667)"/><use xlink:href="#aA" transform="matrix(1,0,0,1,1965,1520) translate(384.1851851851852 303.9010416666667)"/></g><path d="M2314.97 1210h-9.94v-83h9.94zm-9.9-40.67v21.34h9.87v-21.34z" stroke="#3a414a" stroke-width=".05" fill="#3a414a"/><path d="M2314.97 1127.13h-9.94V1122h9.94z" fill="#3a414a"/><path stroke="#3a414a" stroke-width=".05" fill="#3a414a"/><path d="M2310 1228l-7.5-13h15z" fill="#3a414a"/><path d="M2310 1237.95l-16.12-27.9h32.24z" stroke="#3a414a" stroke-width=".05" fill="#3a414a"/><g><use xlink:href="#ar" transform="matrix(1,0,0,1,2305.0617283950614,1169.33334789644) translate(0 14.222222222222223)"/></g><path d="M3090-1114a6 6 0 0 1 6-6h528a6 6 0 0 1 6 6v190a6 6 0 0 1-6 6h-528a6 6 0 0 1-6-6z" stroke="#3a414a" stroke-width="4" fill="#fff"/><g><use xlink:href="#a" transform="matrix(1,0,0,1,3095,-1115) translate(91.88888888888889 48.69791666666667)"/><use xlink:href="#d" transform="matrix(1,0,0,1,3095,-1115) translate(328.77777777777777 48.69791666666667)"/><use xlink:href="#e" transform="matrix(1,0,0,1,3095,-1115) translate(143.1037037037037 112.69791666666667)"/><use xlink:href="#f" transform="matrix(1,0,0,1,3095,-1115) translate(252.0814814814815 112.69791666666667)"/><use xlink:href="#aB" transform="matrix(1,0,0,1,3095,-1115) translate(298.0074074074074 112.69791666666667)"/><use xlink:href="#j" transform="matrix(1,0,0,1,3095,-1115) translate(159.14814814814815 176.69791666666669)"/><use xlink:href="#k" transform="matrix(1,0,0,1,3095,-1115) translate(206.40740740740742 176.69791666666669)"/><use xlink:href="#aC" transform="matrix(1,0,0,1,3095,-1115) translate(252.33333333333334 176.69791666666669)"/></g><path d="M1960 1246a6 6 0 0 1 6-6h1648a6 6 0 0 1 6 6v148a6 6 0 0 1-6 6H1966a6 6 0 0 1-6-6z" stroke="#3a414a" stroke-width="4" fill="#fff"/><g><use xlink:href="#aD" transform="matrix(1,0,0,1,1965,1245) translate(20.70370370370358 84.85416666666667)"/><use xlink:href="#aE" transform="matrix(1,0,0,1,1965,1245) translate(212.8518518518517 84.85416666666667)"/><use xlink:href="#aF" transform="matrix(1,0,0,1,1965,1245) translate(423.07407407407396 84.85416666666667)"/><use xlink:href="#au" transform="matrix(1,0,0,1,1965,1245) translate(544.2592592592591 84.85416666666667)"/><use xlink:href="#aG" transform="matrix(1,0,0,1,1965,1245) translate(792.7037037037036 84.85416666666667)"/><use xlink:href="#P" transform="matrix(1,0,0,1,1965,1245) translate(907.9629629629629 84.85416666666667)"/><use xlink:href="#aH" transform="matrix(1,0,0,1,1965,1245) translate(1032.111111111111 84.85416666666667)"/><use xlink:href="#aI" transform="matrix(1,0,0,1,1965,1245) translate(1117.7407407407409 84.85416666666667)"/><use xlink:href="#aJ" transform="matrix(1,0,0,1,1965,1245) translate(1162.1851851851852 84.85416666666667)"/><use xlink:href="#aK" transform="matrix(1,0,0,1,1965,1245) translate(1499.2222222222222 84.85416666666667)"/></g><path d="M2300 1407v78" stroke="#3a414a" stroke-width="10" fill="none"/><path d="M2304.98 1407.13h-9.95V1402h9.94z" stroke="#3a414a" stroke-width=".05" fill="#3a414a"/><path d="M2300 1503l-7.5-13h15z" stroke="#3a414a" stroke-width="10" fill="#3a414a"/><g><use xlink:href="#ar" transform="matrix(1,0,0,1,2274.6353322772948,1493.3361838376366) translate(0 14.222222222222223)"/></g><path d="M3360 1407v78" stroke="#3a414a" stroke-width="10" fill="none"/><path d="M3364.97 1407.13h-9.94V1402h9.94z" stroke="#3a414a" stroke-width=".05" fill="#3a414a"/><path d="M3360 1503l-7.5-13h15z" stroke="#3a414a" stroke-width="10" fill="#3a414a"/><g><use xlink:href="#ar" transform="matrix(1,0,0,1,3375.5000000000005,1493.3333833333331) translate(0 14.222222222222223)"/></g><path d="M1960-214a6 6 0 0 1 6-6h688a6 6 0 0 1 6 6V34a6 6 0 0 1-6 6h-688a6 6 0 0 1-6-6z" stroke="#3a414a" stroke-width="4" fill="#fff"/><g><use xlink:href="#aL" transform="matrix(1,0,0,1,1965,-215) translate(56.85185185185179 50.47916666666667)"/><use xlink:href="#aM" transform="matrix(1,0,0,1,1965,-215) translate(331.6666666666667 50.47916666666667)"/><use xlink:href="#aN" transform="matrix(1,0,0,1,1965,-215) translate(446.925925925926 50.47916666666667)"/><use xlink:href="#e" transform="matrix(1,0,0,1,1965,-215) translate(223.1037037037037 114.47916666666667)"/><use xlink:href="#f" transform="matrix(1,0,0,1,1965,-215) translate(332.0814814814815 114.47916666666667)"/><use xlink:href="#g" transform="matrix(1,0,0,1,1965,-215) translate(378.0074074074074 114.47916666666667)"/><use xlink:href="#aO" transform="matrix(1,0,0,1,1965,-215) translate(235.1037037037037 178.47916666666669)"/><use xlink:href="#ax" transform="matrix(1,0,0,1,1965,-215) translate(352.67407407407404 178.47916666666669)"/><use xlink:href="#i" transform="matrix(1,0,0,1,1965,-215) translate(398.6 178.47916666666669)"/><use xlink:href="#j" transform="matrix(1,0,0,1,1965,-215) translate(179.88888888888886 242.47916666666669)"/><use xlink:href="#k" transform="matrix(1,0,0,1,1965,-215) translate(227.14814814814812 242.47916666666669)"/><use xlink:href="#l" transform="matrix(1,0,0,1,1965,-215) translate(273.074074074074 242.47916666666669)"/><use xlink:href="#aP" transform="matrix(1,0,0,1,1965,-215) translate(317.5185185185185 242.47916666666669)"/><use xlink:href="#aQ" transform="matrix(1,0,0,1,1965,-215) translate(421.22222222222223 242.47916666666669)"/></g><path d="M1740-674a6 6 0 0 1 6-6h1188a6 6 0 0 1 6 6v368a6 6 0 0 1-6 6H1746a6 6 0 0 1-6-6z" stroke="#3a414a" stroke-width="4" fill="#fff"/><g><use xlink:href="#aR" transform="matrix(1,0,0,1,1745,-675) translate(285.8148148148148 65.79166666666667)"/><use xlink:href="#aE" transform="matrix(1,0,0,1,1745,-675) translate(507.5925925925926 65.79166666666667)"/><use xlink:href="#aS" transform="matrix(1,0,0,1,1745,-675) translate(717.8148148148148 65.79166666666667)"/><use xlink:href="#aT" transform="matrix(1,0,0,1,1745,-675) translate(0 129.79166666666669)"/><use xlink:href="#aU" transform="matrix(1,0,0,1,1745,-675) translate(177.77777777777774 129.79166666666669)"/><use xlink:href="#aV" transform="matrix(1,0,0,1,1745,-675) translate(296 129.79166666666669)"/><use xlink:href="#aW" transform="matrix(1,0,0,1,1745,-675) translate(790.5185185185189 129.79166666666669)"/><use xlink:href="#C" transform="matrix(1,0,0,1,1745,-675) translate(920.5925925925931 129.79166666666669)"/><use xlink:href="#aT" transform="matrix(1,0,0,1,1745,-675) translate(0 193.79166666666669)"/><use xlink:href="#aX" transform="matrix(1,0,0,1,1745,-675) translate(177.77777777777774 193.79166666666669)"/><use xlink:href="#f" transform="matrix(1,0,0,1,1745,-675) translate(286.75555555555553 193.79166666666669)"/><use xlink:href="#aY" transform="matrix(1,0,0,1,1745,-675) translate(332.68148148148146 193.79166666666669)"/><use xlink:href="#aZ" transform="matrix(1,0,0,1,1745,-675) translate(791.9407407407409 193.79166666666669)"/><use xlink:href="#ax" transform="matrix(1,0,0,1,1745,-675) translate(905.3629629629631 193.79166666666669)"/><use xlink:href="#ba" transform="matrix(1,0,0,1,1745,-675) translate(951.2888888888891 193.79166666666669)"/><use xlink:href="#aT" transform="matrix(1,0,0,1,1745,-675) translate(0 257.7916666666667)"/><use xlink:href="#bb" transform="matrix(1,0,0,1,1745,-675) translate(177.77777777777774 257.7916666666667)"/><use xlink:href="#f" transform="matrix(1,0,0,1,1745,-675) translate(290.9037037037037 257.7916666666667)"/><use xlink:href="#bc" transform="matrix(1,0,0,1,1745,-675) translate(336.8296296296296 257.7916666666667)"/><use xlink:href="#bd" transform="matrix(1,0,0,1,1745,-675) translate(796.0888888888892 257.7916666666667)"/><use xlink:href="#f" transform="matrix(1,0,0,1,1745,-675) translate(909.2148148148151 257.7916666666667)"/><use xlink:href="#i" transform="matrix(1,0,0,1,1745,-675) translate(955.1407407407411 257.7916666666667)"/><use xlink:href="#aT" transform="matrix(1,0,0,1,1745,-675) translate(0 321.7916666666667)"/><use xlink:href="#be" transform="matrix(1,0,0,1,1745,-675) translate(177.77777777777774 321.7916666666667)"/><use xlink:href="#ao" transform="matrix(1,0,0,1,1745,-675) translate(225.037037037037 321.7916666666667)"/><use xlink:href="#r" transform="matrix(1,0,0,1,1745,-675) translate(270.96296296296293 321.7916666666667)"/><use xlink:href="#bf" transform="matrix(1,0,0,1,1745,-675) translate(345.037037037037 321.7916666666667)"/><use xlink:href="#bg" transform="matrix(1,0,0,1,1745,-675) translate(789.4814814814818 321.7916666666667)"/><use xlink:href="#bh" transform="matrix(1,0,0,1,1745,-675) translate(867.8518518518522 321.7916666666667)"/></g><path d="M2020-879v169" stroke="#3a414a" stroke-width="10" fill="none"/><path d="M2024.97-878.87h-9.94V-884h9.94z" stroke="#3a414a" stroke-width=".05" fill="#3a414a"/><path d="M2020-692l-7.5-13h15z" stroke="#3a414a" stroke-width="10" fill="#3a414a"/><g><use xlink:href="#ar" transform="matrix(1,0,0,1,2002.1234567901233,-885.6667166666665) translate(0 14.222222222222223)"/></g><path d="M2690-879v169" stroke="#3a414a" stroke-width="10" fill="none"/><path d="M2694.97-878.87h-9.94V-884h9.94z" stroke="#3a414a" stroke-width=".05" fill="#3a414a"/><path d="M2690-692l-7.5-13h15z" stroke="#3a414a" stroke-width="10" fill="#3a414a"/><g><use xlink:href="#ar" transform="matrix(1,0,0,1,2705.5,-701.666646127946) translate(0 14.222222222222223)"/></g><path d="M2138.35-293.9l33.83 48.9" stroke="#3a414a" stroke-width="10" fill="none"/><path d="M2142.5-296.62l-8.17 5.67-4.63-6.7.53-.35h11.32z" stroke="#3a414a" stroke-width=".05" fill="#3a414a"/><path d="M2182.42-230.22l-13.56-6.4 12.34-8.55z" stroke="#3a414a" stroke-width="10" fill="#3a414a"/><g><use xlink:href="#ar" transform="matrix(1,0,0,1,2120.3836563142204,-299.61177233714136) translate(0 14.222222222222223)"/></g><path d="M2462.52-294l-36.8 49.53" stroke="#3a414a" stroke-width="10" fill="none"/><path d="M2471.28-297.44l-4.84 6.52-8-5.93.86-1.15h11.23z" stroke="#3a414a" stroke-width=".05" fill="#3a414a"/><path d="M2415-230.03l1.73-14.9 12.04 8.95z" stroke="#3a414a" stroke-width="10" fill="#3a414a"/><g><use xlink:href="#ar" transform="matrix(1,0,0,1,2437.313450317764,-242.03915109615252) translate(0 14.222222222222223)"/></g><defs><path d="M140-251c80 0 125 45 125 126S219 4 139 4C58 4 15-44 15-125s44-126 125-126zm-1 214c52 0 73-35 73-88 0-50-21-86-72-86-52 0-73 35-73 86s22 88 72 88" id="bi"/><path d="M169-182c-1-43-94-46-97-3 18 66 151 10 154 114 3 95-165 93-204 36-6-8-10-19-12-30l50-8c3 46 112 56 116 5-17-69-150-10-154-114-4-87 153-88 188-35 5 8 8 18 10 28" id="bj"/><path d="M24-248c93 1 206-16 204 79-1 75-69 88-152 82V0H24v-248zm52 121c47 0 100 7 100-41 0-47-54-39-100-39v80" id="bk"/><path d="M240-174c0 40-23 61-54 70L253 0h-59l-57-94H76V0H24v-248c93 4 217-23 216 74zM76-134c48-2 112 12 112-38 0-48-66-32-112-35v73" id="bl"/><path d="M24 0v-248h195v40H76v63h132v40H76v65h150V0H24" id="bm"/><g id="a"><use transform="matrix(0.14814814814814817,0,0,0.14814814814814817,0,0)" xlink:href="#bi"/><use transform="matrix(0.14814814814814817,0,0,0.14814814814814817,41.48148148148149,0)" xlink:href="#bj"/><use transform="matrix(0.14814814814814817,0,0,0.14814814814814817,77.03703703703702,0)" xlink:href="#bk"/><use transform="matrix(0.14814814814814817,0,0,0.14814814814814817,112.5925925925926,0)" xlink:href="#bl"/><use transform="matrix(0.14814814814814817,0,0,0.14814814814814817,150.96296296296296,0)" xlink:href="#bm"/><use transform="matrix(0.14814814814814817,0,0,0.14814814814814817,186.51851851851853,0)" xlink:href="#bm"/></g><path d="M88-194c31-1 46 15 58 34l-1-101h50l1 261h-48c-2-10 0-23-3-31C134-8 116 4 84 4 32 4 16-41 15-95c0-56 19-97 73-99zm17 164c33 0 40-30 41-66 1-37-9-64-41-64s-38 30-39 65c0 43 13 65 39 65" id="bn"/><path d="M133-34C117-15 103 5 69 4 32 3 11-16 11-54c-1-60 55-63 116-61 1-26-3-47-28-47-18 1-26 9-28 27l-52-2c7-38 36-58 82-57s74 22 75 68l1 82c-1 14 12 18 25 15v27c-30 8-71 5-69-32zm-48 3c29 0 43-24 42-57-32 0-66-3-65 30 0 17 8 27 23 27" id="bo"/><path d="M115-3C79 11 28 4 28-45v-112H4v-33h27l15-45h31v45h36v33H77v99c-1 23 16 31 38 25v30" id="bp"/><path d="M135-194c52 0 70 43 70 98 0 56-19 99-73 100-30 1-46-15-58-35L72 0H24l1-261h50v104c11-23 29-37 60-37zM114-30c31 0 40-27 40-66 0-37-7-63-39-63s-41 28-41 65c0 36 8 64 40 64" id="bq"/><path d="M137-138c1-29-70-34-71-4 15 46 118 7 119 86 1 83-164 76-172 9l43-7c4 19 20 25 44 25 33 8 57-30 24-41C81-84 22-81 20-136c-2-80 154-74 161-7" id="br"/><path d="M185-48c-13 30-37 53-82 52C43 2 14-33 14-96s30-98 90-98c62 0 83 45 84 108H66c0 31 8 55 39 56 18 0 30-7 34-22zm-45-69c5-46-57-63-70-21-2 6-4 13-4 21h74" id="bs"/><g id="b"><use transform="matrix(0.14814814814814817,0,0,0.14814814814814817,0,0)" xlink:href="#bn"/><use transform="matrix(0.14814814814814817,0,0,0.14814814814814817,32.44444444444445,0)" xlink:href="#bo"/><use transform="matrix(0.14814814814814817,0,0,0.14814814814814817,62.07407407407408,0)" xlink:href="#bp"/><use transform="matrix(0.14814814814814817,0,0,0.14814814814814817,79.70370370370374,0)" xlink:href="#bo"/><use transform="matrix(0.14814814814814817,0,0,0.14814814814814817,109.33333333333337,0)" xlink:href="#bq"/><use transform="matrix(0.14814814814814817,0,0,0.14814814814814817,141.7777777777778,0)" xlink:href="#bo"/><use transform="matrix(0.14814814814814817,0,0,0.14814814814814817,171.40740740740748,0)" xlink:href="#br"/><use transform="matrix(0.14814814814814817,0,0,0.14814814814814817,201.03703703703707,0)" xlink:href="#bs"/></g><path d="M182-130c37 4 62 22 62 59C244 23 116-4 24 0v-248c84 5 203-23 205 63 0 31-19 50-47 55zM76-148c40-3 101 13 101-30 0-44-60-28-101-31v61zm0 110c48-3 116 14 116-37 0-48-69-32-116-35v72" id="bt"/><path d="M24 0v-248h52V0H24" id="bu"/><path d="M175 0L67-191c6 58 2 128 3 191H24v-248h59L193-55c-6-58-2-129-3-193h46V0h-61" id="bv"/><g id="c"><use transform="matrix(0.14814814814814817,0,0,0.14814814814814817,0,0)" xlink:href="#bt"/><use transform="matrix(0.14814814814814817,0,0,0.14814814814814817,38.370370370370374,0)" xlink:href="#bu"/><use transform="matrix(0.14814814814814817,0,0,0.14814814814814817,53.18518518518519,0)" xlink:href="#bm"/><use transform="matrix(0.14814814814814817,0,0,0.14814814814814817,88.74074074074075,0)" xlink:href="#bv"/></g><g id="d"><use transform="matrix(0.14814814814814817,0,0,0.14814814814814817,0,0)" xlink:href="#bn"/><use transform="matrix(0.14814814814814817,0,0,0.14814814814814817,32.44444444444445,0)" xlink:href="#bo"/><use transform="matrix(0.14814814814814817,0,0,0.14814814814814817,62.07407407407408,0)" xlink:href="#bp"/><use transform="matrix(0.14814814814814817,0,0,0.14814814814814817,79.70370370370374,0)" xlink:href="#bo"/></g><path d="M135-194c87-1 58 113 63 194h-50c-7-57 23-157-34-157-59 0-34 97-39 157H25l-1-190h47c2 12-1 28 3 38 12-26 28-41 61-42" id="bw"/><path d="M135-194c53 0 70 44 70 98 0 56-19 98-73 100-31 1-45-17-59-34 3 33 2 69 2 105H25l-1-265h48c2 10 0 23 3 31 11-24 29-35 60-35zM114-30c33 0 39-31 40-66 0-38-9-64-40-64-56 0-55 130 0 130" id="bx"/><g id="e"><use transform="matrix(0.14814814814814817,0,0,0.14814814814814817,0,0)" xlink:href="#bw"/><use transform="matrix(0.10370370370370371,0,0,0.10370370370370371,32.44444444444445,7.466666666666668)" xlink:href="#br"/><use transform="matrix(0.10370370370370371,0,0,0.10370370370370371,53.1851851851852,7.466666666666668)" xlink:href="#bx"/><use transform="matrix(0.10370370370370371,0,0,0.10370370370370371,75.8962962962963,7.466666666666668)" xlink:href="#bx"/></g><path d="M15-148v-39h180v39H15zm0 97v-39h180v39H15" id="by"/><use transform="matrix(0.14814814814814817,0,0,0.14814814814814817,0,0)" xlink:href="#by" id="f"/><path d="M23 0v-37h61v-169l-59 37v-38l62-41h46v211h57V0H23" id="bz"/><path d="M165-50V0h-47v-50H5v-38l105-160h55v161h33v37h-33zm-47-37l2-116L46-87h72" id="bA"/><path d="M115-159c48 0 72 30 72 78 0 54-30 85-83 85-64 0-91-50-91-122 0-98 58-163 141-120 15 8 21 24 27 44l-47 6c-5-31-48-31-61-4-7 14-11 33-11 60 9-17 28-27 53-27zM102-35c24 0 36-20 36-45s-11-43-37-43c-23 0-36 14-36 38 0 27 11 50 37 50" id="bB"/><g id="g"><use transform="matrix(0.14814814814814817,0,0,0.14814814814814817,0,0)" xlink:href="#bz"/><use transform="matrix(0.14814814814814817,0,0,0.14814814814814817,29.629629629629633,0)" xlink:href="#bA"/><use transform="matrix(0.14814814814814817,0,0,0.14814814814814817,59.25925925925927,0)" xlink:href="#bB"/></g><path d="M135-150c-39-12-60 13-60 57V0H25l-1-190h47c2 13-1 29 3 40 6-28 27-53 61-41v41" id="bC"/><path d="M25-224v-37h50v37H25zM25 0v-190h50V0H25" id="bD"/><g id="h"><use transform="matrix(0.14814814814814817,0,0,0.14814814814814817,0,0)" xlink:href="#bw"/><use transform="matrix(0.10370370370370371,0,0,0.10370370370370371,32.44444444444445,7.466666666666668)" xlink:href="#bp"/><use transform="matrix(0.10370370370370371,0,0,0.10370370370370371,44.78518518518519,7.466666666666668)" xlink:href="#bC"/><use transform="matrix(0.10370370370370371,0,0,0.10370370370370371,59.30370370370371,7.466666666666668)" xlink:href="#bo"/><use transform="matrix(0.10370370370370371,0,0,0.10370370370370371,80.04444444444445,7.466666666666668)" xlink:href="#bD"/><use transform="matrix(0.10370370370370371,0,0,0.10370370370370371,90.41481481481482,7.466666666666668)" xlink:href="#bp"/></g><g id="i"><use transform="matrix(0.14814814814814817,0,0,0.14814814814814817,0,0)" xlink:href="#bz"/><use transform="matrix(0.14814814814814817,0,0,0.14814814814814817,26.66666666666667,0)" xlink:href="#bz"/></g><use transform="matrix(0.14814814814814817,0,0,0.14814814814814817,0,0)" xlink:href="#bw" id="j"/><use transform="matrix(0.14814814814814817,0,0,0.14814814814814817,0,0)" xlink:href="#by" id="k"/><use transform="matrix(0.14814814814814817,0,0,0.14814814814814817,0,0)" xlink:href="#bz" id="l"/><path d="M182-182c0 78-84 86-111 141h115V0H12c-6-101 99-100 120-180 1-22-12-31-33-32-23 0-32 14-35 34l-49-3c5-45 32-70 84-70 51 0 83 22 83 69" id="bE"/><path d="M139-81c0-46-55-55-73-27H18l9-140h149v37H72l-4 63c44-38 133-4 122 66C201 21 21 35 11-62l49-4c5 18 15 30 39 30 26 0 40-18 40-45" id="bF"/><g id="m"><use transform="matrix(0.14814814814814817,0,0,0.14814814814814817,0,0)" xlink:href="#bE"/><use transform="matrix(0.14814814814814817,0,0,0.14814814814814817,29.629629629629633,0)" xlink:href="#bz"/><use transform="matrix(0.14814814814814817,0,0,0.14814814814814817,59.25925925925927,0)" xlink:href="#bF"/></g><path d="M128-127c34 4 56 21 59 58 7 91-148 94-172 28-4-9-6-17-7-26l51-5c1 24 16 35 40 36 23 0 39-12 38-36-1-31-31-36-65-34v-40c32 2 59-3 59-33 0-20-13-33-34-33s-33 13-35 32l-50-3c6-44 37-68 86-68 50 0 83 20 83 66 0 35-22 52-53 58" id="bG"/><g id="n"><use transform="matrix(0.14814814814814817,0,0,0.14814814814814817,0,0)" xlink:href="#bA"/><use transform="matrix(0.14814814814814817,0,0,0.14814814814814817,29.629629629629633,0)" xlink:href="#bG"/><use transform="matrix(0.14814814814814817,0,0,0.14814814814814817,59.25925925925927,0)" xlink:href="#bA"/></g><path d="M136-208V0H84v-208H4v-40h212v40h-80" id="bH"/><path d="M146-102V0H94v-102L6-248h54l60 105 60-105h54" id="bI"/><g id="o"><use transform="matrix(0.14814814814814817,0,0,0.14814814814814817,0,0)" xlink:href="#bH"/><use transform="matrix(0.14814814814814817,0,0,0.14814814814814817,32.44444444444445,0)" xlink:href="#bl"/><use transform="matrix(0.14814814814814817,0,0,0.14814814814814817,68.8888888888889,0)" xlink:href="#bI"/></g><g id="p"><use transform="matrix(0.14814814814814817,0,0,0.14814814814814817,0,0)" xlink:href="#bz"/><use transform="matrix(0.14814814814814817,0,0,0.14814814814814817,29.629629629629633,0)" xlink:href="#bG"/><use transform="matrix(0.14814814814814817,0,0,0.14814814814814817,59.25925925925927,0)" xlink:href="#bA"/></g><path d="M138-131c27 9 52 24 51 61 0 53-36 74-89 74S11-19 11-69c0-35 22-54 51-61-78-25-46-121 38-121 51 0 83 19 83 66 0 30-18 49-45 54zm-38-16c24 0 32-13 32-36 1-23-11-34-32-34-22 0-33 12-32 34 0 22 9 36 32 36zm1 116c27 0 37-17 37-43 0-25-13-39-39-39-24 0-37 15-37 40 0 27 11 42 39 42" id="bJ"/><use transform="matrix(0.14814814814814817,0,0,0.14814814814814817,0,0)" xlink:href="#bJ" id="q"/><g id="r"><use transform="matrix(0.14814814814814817,0,0,0.14814814814814817,0,0)" xlink:href="#bA"/><use transform="matrix(0.14814814814814817,0,0,0.14814814814814817,29.629629629629633,0)" xlink:href="#bG"/></g><g id="s"><use transform="matrix(0.14814814814814817,0,0,0.14814814814814817,0,0)" xlink:href="#bE"/><use transform="matrix(0.14814814814814817,0,0,0.14814814814814817,29.629629629629633,0)" xlink:href="#bE"/><use transform="matrix(0.14814814814814817,0,0,0.14814814814814817,59.25925925925927,0)" xlink:href="#bF"/></g><path d="M24-248c120-7 223 5 221 122C244-46 201 0 124 0H24v-248zM76-40c74 7 117-18 117-86 0-67-45-88-117-82v168" id="bK"/><g id="t"><use transform="matrix(0.14814814814814817,0,0,0.14814814814814817,0,0)" xlink:href="#bK"/><use transform="matrix(0.14814814814814817,0,0,0.14814814814814817,38.370370370370374,0)" xlink:href="#bo"/><use transform="matrix(0.14814814814814817,0,0,0.14814814814814817,68,0)" xlink:href="#bp"/><use transform="matrix(0.14814814814814817,0,0,0.14814814814814817,85.62962962962965,0)" xlink:href="#bo"/></g><path d="M67-125c0 53 21 87 73 88 37 1 54-22 65-47l45 17C233-25 199 4 140 4 58 4 20-42 15-125 8-235 124-281 211-232c18 10 29 29 36 50l-46 12c-8-25-30-41-62-41-52 0-71 34-72 86" id="bL"/><path d="M110-194c64 0 96 36 96 99 0 64-35 99-97 99-61 0-95-36-95-99 0-62 34-99 96-99zm-1 164c35 0 45-28 45-65 0-40-10-65-43-65-34 0-45 26-45 65 0 36 10 65 43 65" id="bM"/><path d="M220-157c-53 9-28 100-34 157h-49v-107c1-27-5-49-29-50C55-147 81-57 75 0H25l-1-190h47c2 12-1 28 3 38 10-53 101-56 108 0 13-22 24-43 59-42 82 1 51 116 57 194h-49v-107c-1-25-5-48-29-50" id="bN"/><path d="M25 0v-261h50V0H25" id="bO"/><path d="M35-132v-50h50v50H35zM35 0v-49h50V0H35" id="bP"/><g id="u"><use transform="matrix(0.14814814814814817,0,0,0.14814814814814817,0,0)" xlink:href="#bL"/><use transform="matrix(0.14814814814814817,0,0,0.14814814814814817,38.370370370370374,0)" xlink:href="#bM"/><use transform="matrix(0.14814814814814817,0,0,0.14814814814814817,70.81481481481482,0)" xlink:href="#bN"/><use transform="matrix(0.14814814814814817,0,0,0.14814814814814817,118.22222222222221,0)" xlink:href="#bx"/><use transform="matrix(0.14814814814814817,0,0,0.14814814814814817,150.66666666666669,0)" xlink:href="#bD"/><use transform="matrix(0.14814814814814817,0,0,0.14814814814814817,165.4814814814815,0)" xlink:href="#bO"/><use transform="matrix(0.14814814814814817,0,0,0.14814814814814817,180.29629629629633,0)" xlink:href="#bo"/><use transform="matrix(0.14814814814814817,0,0,0.14814814814814817,209.92592592592592,0)" xlink:href="#bp"/><use transform="matrix(0.14814814814814817,0,0,0.14814814814814817,227.55555555555554,0)" xlink:href="#bD"/><use transform="matrix(0.14814814814814817,0,0,0.14814814814814817,242.37037037037038,0)" xlink:href="#bM"/><use transform="matrix(0.14814814814814817,0,0,0.14814814814814817,274.8148148148148,0)" xlink:href="#bw"/><use transform="matrix(0.14814814814814817,0,0,0.14814814814814817,307.25925925925924,0)" xlink:href="#bP"/></g><path d="M114-157C55-157 80-60 75 0H25v-261h50l-1 109c12-26 28-41 61-42 86-1 58 113 63 194h-50c-7-57 23-157-34-157" id="bQ"/><path d="M195-6C206 82 75 100 31 46c-4-6-6-13-8-21l49-6c3 16 16 24 34 25 40 0 42-37 40-79-11 22-30 35-61 35-53 0-70-43-70-97 0-56 18-96 73-97 30 0 46 14 59 34l2-30h47zm-90-29c32 0 41-27 41-63 0-35-9-62-40-62-32 0-39 29-40 63 0 36 9 62 39 62" id="bR"/><path d="M123 10C108 53 80 86 19 72V37c35 8 53-11 59-39L3-190h52l48 148c12-52 28-100 44-148h51" id="bS"/><g id="v"><use transform="matrix(0.14814814814814817,0,0,0.14814814814814817,0,0)" xlink:href="#bk"/><use transform="matrix(0.14814814814814817,0,0,0.14814814814814817,35.55555555555556,0)" xlink:href="#bQ"/><use transform="matrix(0.14814814814814817,0,0,0.14814814814814817,68,0)" xlink:href="#bs"/><use transform="matrix(0.14814814814814817,0,0,0.14814814814814817,97.62962962962962,0)" xlink:href="#bw"/><use transform="matrix(0.14814814814814817,0,0,0.14814814814814817,130.07407407407408,0)" xlink:href="#bM"/><use transform="matrix(0.14814814814814817,0,0,0.14814814814814817,162.51851851851853,0)" xlink:href="#bO"/><use transform="matrix(0.14814814814814817,0,0,0.14814814814814817,177.33333333333334,0)" xlink:href="#bM"/><use transform="matrix(0.14814814814814817,0,0,0.14814814814814817,209.7777777777778,0)" xlink:href="#bR"/><use transform="matrix(0.14814814814814817,0,0,0.14814814814814817,242.22222222222226,0)" xlink:href="#bS"/></g><g id="w"><use transform="matrix(0.14814814814814817,0,0,0.14814814814814817,0,0)" xlink:href="#bn"/><use transform="matrix(0.14814814814814817,0,0,0.14814814814814817,32.44444444444445,0)" xlink:href="#bo"/><use transform="matrix(0.14814814814814817,0,0,0.14814814814814817,62.07407407407408,0)" xlink:href="#bp"/><use transform="matrix(0.14814814814814817,0,0,0.14814814814814817,79.70370370370374,0)" xlink:href="#bo"/><use transform="matrix(0.14814814814814817,0,0,0.14814814814814817,109.33333333333337,0)" xlink:href="#br"/><use transform="matrix(0.14814814814814817,0,0,0.14814814814814817,138.962962962963,0)" xlink:href="#bs"/><use transform="matrix(0.14814814814814817,0,0,0.14814814814814817,168.5925925925926,0)" xlink:href="#bp"/></g><path d="M52 0c1-96 47-148 87-207H15v-41h169v40c-36 62-79 113-81 208H52" id="bT"/><g id="x"><use transform="matrix(0.14814814814814817,0,0,0.14814814814814817,0,0)" xlink:href="#bG"/><use transform="matrix(0.14814814814814817,0,0,0.14814814814814817,29.629629629629633,0)" xlink:href="#bT"/></g><path d="M101-251c68 0 84 54 84 127C185-50 166 4 99 4S15-52 14-124c-1-75 17-127 87-127zm-1 216c37-5 36-46 36-89s4-89-36-89c-39 0-36 45-36 89 0 43-3 85 36 89" id="bU"/><g id="y"><use transform="matrix(0.14814814814814817,0,0,0.14814814814814817,0,0)" xlink:href="#bz"/><use transform="matrix(0.14814814814814817,0,0,0.14814814814814817,29.629629629629633,0)" xlink:href="#bB"/><use transform="matrix(0.14814814814814817,0,0,0.14814814814814817,59.25925925925927,0)" xlink:href="#bT"/><use transform="matrix(0.14814814814814817,0,0,0.14814814814814817,88.8888888888889,0)" xlink:href="#bU"/></g><g id="z"><use transform="matrix(0.14814814814814817,0,0,0.14814814814814817,0,0)" xlink:href="#bL"/><use transform="matrix(0.14814814814814817,0,0,0.14814814814814817,38.370370370370374,0)" xlink:href="#bO"/><use transform="matrix(0.14814814814814817,0,0,0.14814814814814817,53.18518518518519,0)" xlink:href="#bs"/><use transform="matrix(0.14814814814814817,0,0,0.14814814814814817,82.81481481481482,0)" xlink:href="#bo"/><use transform="matrix(0.14814814814814817,0,0,0.14814814814814817,112.44444444444446,0)" xlink:href="#bw"/><use transform="matrix(0.14814814814814817,0,0,0.14814814814814817,144.8888888888889,0)" xlink:href="#bD"/><use transform="matrix(0.14814814814814817,0,0,0.14814814814814817,159.70370370370372,0)" xlink:href="#bw"/><use transform="matrix(0.14814814814814817,0,0,0.14814814814814817,192.14814814814818,0)" xlink:href="#bR"/><use transform="matrix(0.14814814814814817,0,0,0.14814814814814817,224.5925925925926,0)" xlink:href="#bP"/></g><path d="M128 0H69L1-190h53L99-40l48-150h52" id="bV"/><g id="A"><use transform="matrix(0.14814814814814817,0,0,0.14814814814814817,0,0)" xlink:href="#bl"/><use transform="matrix(0.14814814814814817,0,0,0.14814814814814817,38.370370370370374,0)" xlink:href="#bs"/><use transform="matrix(0.14814814814814817,0,0,0.14814814814814817,68,0)" xlink:href="#bN"/><use transform="matrix(0.14814814814814817,0,0,0.14814814814814817,115.40740740740742,0)" xlink:href="#bM"/><use transform="matrix(0.14814814814814817,0,0,0.14814814814814817,147.85185185185188,0)" xlink:href="#bV"/><use transform="matrix(0.14814814814814817,0,0,0.14814814814814817,177.48148148148155,0)" xlink:href="#bs"/></g><path d="M85 4C-2 5 27-109 22-190h50c7 57-23 150 33 157 60-5 35-97 40-157h50l1 190h-47c-2-12 1-28-3-38-12 25-28 42-61 42" id="bW"/><path d="M190-63c-7 42-38 67-86 67-59 0-84-38-90-98-12-110 154-137 174-36l-49 2c-2-19-15-32-35-32-30 0-35 28-38 64-6 74 65 87 74 30" id="bX"/><g id="B"><use transform="matrix(0.14814814814814817,0,0,0.14814814814814817,0,0)" xlink:href="#bn"/><use transform="matrix(0.14814814814814817,0,0,0.14814814814814817,32.44444444444445,0)" xlink:href="#bW"/><use transform="matrix(0.14814814814814817,0,0,0.14814814814814817,64.8888888888889,0)" xlink:href="#bx"/><use transform="matrix(0.14814814814814817,0,0,0.14814814814814817,97.33333333333334,0)" xlink:href="#bO"/><use transform="matrix(0.14814814814814817,0,0,0.14814814814814817,112.14814814814815,0)" xlink:href="#bD"/><use transform="matrix(0.14814814814814817,0,0,0.14814814814814817,126.96296296296296,0)" xlink:href="#bX"/><use transform="matrix(0.14814814814814817,0,0,0.14814814814814817,156.5925925925926,0)" xlink:href="#bo"/><use transform="matrix(0.14814814814814817,0,0,0.14814814814814817,186.2222222222222,0)" xlink:href="#bp"/><use transform="matrix(0.14814814814814817,0,0,0.14814814814814817,203.85185185185185,0)" xlink:href="#bs"/><use transform="matrix(0.14814814814814817,0,0,0.14814814814814817,233.48148148148147,0)" xlink:href="#bn"/></g><g id="C"><use transform="matrix(0.14814814814814817,0,0,0.14814814814814817,0,0)" xlink:href="#bn"/><use transform="matrix(0.14814814814814817,0,0,0.14814814814814817,32.44444444444445,0)" xlink:href="#bo"/><use transform="matrix(0.14814814814814817,0,0,0.14814814814814817,62.07407407407408,0)" xlink:href="#bp"/><use transform="matrix(0.14814814814814817,0,0,0.14814814814814817,79.70370370370374,0)" xlink:href="#bo"/></g><use transform="matrix(0.14814814814814817,0,0,0.14814814814814817,0,0)" xlink:href="#bw" id="D"/><g id="E"><use transform="matrix(0.14814814814814817,0,0,0.14814814814814817,0,0)" xlink:href="#bA"/><use transform="matrix(0.14814814814814817,0,0,0.14814814814814817,29.629629629629633,0)" xlink:href="#bG"/><use transform="matrix(0.14814814814814817,0,0,0.14814814814814817,59.25925925925927,0)" xlink:href="#bA"/></g><path d="M99-251c69 0 84 53 88 123 5 99-61 162-144 118-15-8-21-25-26-45l46-6c4 31 50 33 63 7 7-15 12-36 12-60-9 18-29 28-54 28-48 0-72-32-72-82 0-55 31-83 87-83zm-1 128c24 0 37-16 37-39 0-27-10-51-37-51-25 0-35 19-35 45 0 25 10 45 35 45" id="bY"/><g id="F"><use transform="matrix(0.14814814814814817,0,0,0.14814814814814817,0,0)" xlink:href="#bY"/><use transform="matrix(0.14814814814814817,0,0,0.14814814814814817,29.629629629629633,0)" xlink:href="#bU"/><use transform="matrix(0.14814814814814817,0,0,0.14814814814814817,59.25925925925927,0)" xlink:href="#bF"/></g><path d="M199 0l-22-63H83L61 0H9l90-248h61L250 0h-51zm-33-102l-36-108c-10 38-24 72-36 108h72" id="bZ"/><g id="G"><use transform="matrix(0.14814814814814817,0,0,0.14814814814814817,0,0)" xlink:href="#bk"/><use transform="matrix(0.14814814814814817,0,0,0.14814814814814817,35.55555555555556,0)" xlink:href="#bL"/><use transform="matrix(0.14814814814814817,0,0,0.14814814814814817,73.92592592592592,0)" xlink:href="#bZ"/></g><g id="H"><use transform="matrix(0.14814814814814817,0,0,0.14814814814814817,0,0)" xlink:href="#bp"/><use transform="matrix(0.14814814814814817,0,0,0.14814814814814817,17.629629629629633,0)" xlink:href="#bM"/></g><g id="I"><use transform="matrix(0.14814814814814817,0,0,0.14814814814814817,0,0)" xlink:href="#bC"/><use transform="matrix(0.14814814814814817,0,0,0.14814814814814817,20.740740740740744,0)" xlink:href="#bs"/><use transform="matrix(0.14814814814814817,0,0,0.14814814814814817,50.370370370370374,0)" xlink:href="#bN"/><use transform="matrix(0.14814814814814817,0,0,0.14814814814814817,97.77777777777781,0)" xlink:href="#bM"/><use transform="matrix(0.14814814814814817,0,0,0.14814814814814817,130.22222222222226,0)" xlink:href="#bV"/><use transform="matrix(0.14814814814814817,0,0,0.14814814814814817,159.8518518518519,0)" xlink:href="#bs"/></g><g id="J"><use transform="matrix(0.14814814814814817,0,0,0.14814814814814817,0,0)" xlink:href="#bX"/><use transform="matrix(0.14814814814814817,0,0,0.14814814814814817,29.629629629629633,0)" xlink:href="#bM"/><use transform="matrix(0.14814814814814817,0,0,0.14814814814814817,62.07407407407408,0)" xlink:href="#bC"/><use transform="matrix(0.14814814814814817,0,0,0.14814814814814817,82.81481481481482,0)" xlink:href="#bC"/><use transform="matrix(0.14814814814814817,0,0,0.14814814814814817,103.55555555555557,0)" xlink:href="#bs"/><use transform="matrix(0.14814814814814817,0,0,0.14814814814814817,133.18518518518522,0)" xlink:href="#bO"/><use transform="matrix(0.14814814814814817,0,0,0.14814814814814817,148.00000000000003,0)" xlink:href="#bo"/><use transform="matrix(0.14814814814814817,0,0,0.14814814814814817,177.62962962962968,0)" xlink:href="#bp"/><use transform="matrix(0.14814814814814817,0,0,0.14814814814814817,195.2592592592593,0)" xlink:href="#bs"/><use transform="matrix(0.14814814814814817,0,0,0.14814814814814817,224.8888888888889,0)" xlink:href="#bn"/></g><g id="K"><use transform="matrix(0.14814814814814817,0,0,0.14814814814814817,0,0)" xlink:href="#bp"/><use transform="matrix(0.14814814814814817,0,0,0.14814814814814817,17.629629629629633,0)" xlink:href="#bC"/><use transform="matrix(0.14814814814814817,0,0,0.14814814814814817,38.37037037037038,0)" xlink:href="#bo"/><use transform="matrix(0.14814814814814817,0,0,0.14814814814814817,68.00000000000001,0)" xlink:href="#bD"/><use transform="matrix(0.14814814814814817,0,0,0.14814814814814817,82.81481481481484,0)" xlink:href="#bp"/><use transform="matrix(0.14814814814814817,0,0,0.14814814814814817,100.44444444444447,0)" xlink:href="#br"/></g><path d="M84 4C32 4 15-41 15-95c0-55 18-99 73-99 29 0 47 12 58 34l2-30h48l-1 265h-49V-32C136-9 114 4 84 4zm21-34c32 0 41-29 41-66 0-36-9-64-40-64-33 0-39 30-40 65 0 43 13 65 39 65" id="ca"/><g id="M"><use transform="matrix(0.14814814814814817,0,0,0.14814814814814817,0,0)" xlink:href="#bl"/><use transform="matrix(0.14814814814814817,0,0,0.14814814814814817,38.370370370370374,0)" xlink:href="#bs"/><use transform="matrix(0.14814814814814817,0,0,0.14814814814814817,68,0)" xlink:href="#ca"/><use transform="matrix(0.14814814814814817,0,0,0.14814814814814817,100.44444444444446,0)" xlink:href="#bW"/><use transform="matrix(0.14814814814814817,0,0,0.14814814814814817,132.8888888888889,0)" xlink:href="#bs"/><use transform="matrix(0.14814814814814817,0,0,0.14814814814814817,162.51851851851853,0)" xlink:href="#br"/><use transform="matrix(0.14814814814814817,0,0,0.14814814814814817,192.14814814814815,0)" xlink:href="#bp"/></g><g id="N"><use transform="matrix(0.14814814814814817,0,0,0.14814814814814817,0,0)" xlink:href="#bM"/><use transform="matrix(0.14814814814814817,0,0,0.14814814814814817,32.44444444444445,0)" xlink:href="#bC"/></g><g id="O"><use transform="matrix(0.14814814814814817,0,0,0.14814814814814817,0,0)" xlink:href="#br"/><use transform="matrix(0.14814814814814817,0,0,0.14814814814814817,29.629629629629633,0)" xlink:href="#bW"/><use transform="matrix(0.14814814814814817,0,0,0.14814814814814817,62.07407407407408,0)" xlink:href="#bq"/><use transform="matrix(0.14814814814814817,0,0,0.14814814814814817,94.51851851851853,0)" xlink:href="#br"/><use transform="matrix(0.14814814814814817,0,0,0.14814814814814817,124.14814814814817,0)" xlink:href="#bs"/><use transform="matrix(0.14814814814814817,0,0,0.14814814814814817,153.7777777777778,0)" xlink:href="#bp"/></g><g id="P"><use transform="matrix(0.14814814814814817,0,0,0.14814814814814817,0,0)" xlink:href="#bn"/><use transform="matrix(0.14814814814814817,0,0,0.14814814814814817,32.44444444444445,0)" xlink:href="#bo"/><use transform="matrix(0.14814814814814817,0,0,0.14814814814814817,62.07407407407408,0)" xlink:href="#bp"/><use transform="matrix(0.14814814814814817,0,0,0.14814814814814817,79.70370370370374,0)" xlink:href="#bo"/></g><path d="M121-226c-27-7-43 5-38 36h38v33H83V0H34v-157H6v-33h28c-9-59 32-81 87-68v32" id="cb"/><g id="Q"><use transform="matrix(0.14814814814814817,0,0,0.14814814814814817,0,0)" xlink:href="#cb"/><use transform="matrix(0.14814814814814817,0,0,0.14814814814814817,17.629629629629633,0)" xlink:href="#bC"/><use transform="matrix(0.14814814814814817,0,0,0.14814814814814817,38.37037037037038,0)" xlink:href="#bM"/><use transform="matrix(0.14814814814814817,0,0,0.14814814814814817,70.81481481481484,0)" xlink:href="#bN"/></g><path d="M230 0l2-204L168 0h-37L68-204 70 0H24v-248h70l56 185 57-185h69V0h-46" id="cc"/><path d="M14-72v-43h91v43H14" id="cd"/><g id="R"><use transform="matrix(0.14814814814814817,0,0,0.14814814814814817,0,0)" xlink:href="#cc"/><use transform="matrix(0.14814814814814817,0,0,0.14814814814814817,44.296296296296305,0)" xlink:href="#bM"/><use transform="matrix(0.14814814814814817,0,0,0.14814814814814817,76.74074074074076,0)" xlink:href="#bC"/><use transform="matrix(0.14814814814814817,0,0,0.14814814814814817,97.48148148148151,0)" xlink:href="#bo"/><use transform="matrix(0.14814814814814817,0,0,0.14814814814814817,127.11111111111114,0)" xlink:href="#bO"/><use transform="matrix(0.14814814814814817,0,0,0.14814814814814817,141.92592592592595,0)" xlink:href="#bO"/><use transform="matrix(0.14814814814814817,0,0,0.14814814814814817,156.74074074074076,0)" xlink:href="#bs"/><use transform="matrix(0.14814814814814817,0,0,0.14814814814814817,186.37037037037038,0)" xlink:href="#br"/><use transform="matrix(0.14814814814814817,0,0,0.14814814814814817,216,0)" xlink:href="#cd"/><use transform="matrix(0.14814814814814817,0,0,0.14814814814814817,233.62962962962962,0)" xlink:href="#bL"/><use transform="matrix(0.14814814814814817,0,0,0.14814814814814817,272,0)" xlink:href="#bo"/><use transform="matrix(0.14814814814814817,0,0,0.14814814814814817,301.6296296296296,0)" xlink:href="#br"/><use transform="matrix(0.14814814814814817,0,0,0.14814814814814817,331.25925925925924,0)" xlink:href="#bp"/><use transform="matrix(0.14814814814814817,0,0,0.14814814814814817,348.88888888888886,0)" xlink:href="#bs"/><use transform="matrix(0.14814814814814817,0,0,0.14814814814814817,378.5185185185185,0)" xlink:href="#bO"/><use transform="matrix(0.14814814814814817,0,0,0.14814814814814817,393.3333333333333,0)" xlink:href="#bO"/><use transform="matrix(0.14814814814814817,0,0,0.14814814814814817,408.14814814814815,0)" xlink:href="#bM"/></g><path d="M114-194c63-2 87 48 72 110H63c-3 28 1 55 31 54 21-1 32-13 37-29l44 13C160-14 137 4 91 4 41 4 11-22 11-73c0-71 33-119 103-121zm30 77c14-47-50-61-67-22-3 6-6 13-8 22h75" id="ce"/><path d="M72-63c-8 23 5 39 32 30L98-1C54 14 12-6 23-64l18-93H15l7-33h28l24-45h31l-8 45h35l-6 33H90" id="cf"/><g id="S"><use transform="matrix(0.14814814814814817,0,0,0.14814814814814817,0,0)" xlink:href="#ce"/><use transform="matrix(0.14814814814814817,0,0,0.14814814814814817,29.629629629629633,0)" xlink:href="#cf"/></g><path d="M166-52c-4 17 5 29 24 23l-3 27c-30 11-74 1-67-34C105-15 91 4 56 4 23 4 3-15 2-49c0-64 63-67 128-67 10-22 3-53-29-45-13 3-22 10-25 24l-46-5c5-64 156-77 153 0-1 33-11 60-17 90zM97-88c-44-9-64 57-19 57 31 0 42-28 47-57H97" id="cg"/><path d="M6 0l51-261h49L55 0H6" id="ch"/><path d="M8 0l10-54h51L59 0H8" id="ci"/><g id="T"><use transform="matrix(0.14814814814814817,0,0,0.14814814814814817,0,0)" xlink:href="#cg"/><use transform="matrix(0.14814814814814817,0,0,0.14814814814814817,29.629629629629633,0)" xlink:href="#ch"/><use transform="matrix(0.14814814814814817,0,0,0.14814814814814817,44.44444444444445,0)" xlink:href="#ci"/></g><path d="M67-93c0 74 22 123 53 168H70C40 30 18-18 18-93s22-123 52-168h50c-32 44-53 94-53 168" id="cj"/><path d="M102-93c0 74-22 123-52 168H0C30 29 54-18 53-93c0-74-22-123-53-168h50c30 45 52 94 52 168" id="ck"/><g id="U"><use transform="matrix(0.14814814814814817,0,0,0.14814814814814817,0,0)" xlink:href="#cj"/><use transform="matrix(0.14814814814814817,0,0,0.14814814814814817,17.629629629629633,0)" xlink:href="#bE"/><use transform="matrix(0.14814814814814817,0,0,0.14814814814814817,47.25925925925927,0)" xlink:href="#bU"/><use transform="matrix(0.14814814814814817,0,0,0.14814814814814817,76.8888888888889,0)" xlink:href="#bE"/><use transform="matrix(0.14814814814814817,0,0,0.14814814814814817,106.51851851851853,0)" xlink:href="#bA"/><use transform="matrix(0.14814814814814817,0,0,0.14814814814814817,136.14814814814815,0)" xlink:href="#ck"/></g><g id="V"><use transform="matrix(0.14814814814814817,0,0,0.14814814814814817,0,0)" xlink:href="#bw"/><use transform="matrix(0.10370370370370371,0,0,0.10370370370370371,32.44444444444445,7.466666666666668)" xlink:href="#br"/><use transform="matrix(0.10370370370370371,0,0,0.10370370370370371,53.1851851851852,7.466666666666668)" xlink:href="#bx"/><use transform="matrix(0.10370370370370371,0,0,0.10370370370370371,75.8962962962963,7.466666666666668)" xlink:href="#bx"/><use transform="matrix(0.14814814814814817,0,0,0.14814814814814817,98.60740740740741,0)" xlink:href="#by"/></g><g id="W"><use transform="matrix(0.14814814814814817,0,0,0.14814814814814817,0,0)" xlink:href="#bE"/><use transform="matrix(0.14814814814814817,0,0,0.14814814814814817,29.629629629629633,0)" xlink:href="#bG"/><use transform="matrix(0.14814814814814817,0,0,0.14814814814814817,59.25925925925927,0)" xlink:href="#bA"/></g><g id="X"><use transform="matrix(0.14814814814814817,0,0,0.14814814814814817,0,0)" xlink:href="#bj"/><use transform="matrix(0.14814814814814817,0,0,0.14814814814814817,35.55555555555556,0)" xlink:href="#bW"/><use transform="matrix(0.14814814814814817,0,0,0.14814814814814817,68,0)" xlink:href="#bq"/><use transform="matrix(0.14814814814814817,0,0,0.14814814814814817,100.44444444444446,0)" xlink:href="#br"/><use transform="matrix(0.14814814814814817,0,0,0.14814814814814817,130.07407407407408,0)" xlink:href="#bs"/><use transform="matrix(0.14814814814814817,0,0,0.14814814814814817,159.7037037037037,0)" xlink:href="#bp"/><use transform="matrix(0.14814814814814817,0,0,0.14814814814814817,177.33333333333331,0)" xlink:href="#bp"/><use transform="matrix(0.14814814814814817,0,0,0.14814814814814817,194.96296296296293,0)" xlink:href="#bs"/><use transform="matrix(0.14814814814814817,0,0,0.14814814814814817,224.59259259259255,0)" xlink:href="#bn"/></g><g id="Y"><use transform="matrix(0.14814814814814817,0,0,0.14814814814814817,0,0)" xlink:href="#cb"/><use transform="matrix(0.14814814814814817,0,0,0.14814814814814817,17.629629629629633,0)" xlink:href="#bM"/><use transform="matrix(0.14814814814814817,0,0,0.14814814814814817,50.07407407407408,0)" xlink:href="#bC"/><use transform="matrix(0.14814814814814817,0,0,0.14814814814814817,70.81481481481482,0)" xlink:href="#bP"/></g><path d="M24 0v-54h51V0H24" id="cl"/><g id="Z"><use transform="matrix(0.14814814814814817,0,0,0.14814814814814817,0,0)" xlink:href="#bz"/><use transform="matrix(0.14814814814814817,0,0,0.14814814814814817,29.629629629629633,0)" xlink:href="#cl"/></g><g id="aa"><use transform="matrix(0.14814814814814817,0,0,0.14814814814814817,0,0)" xlink:href="#bo"/><use transform="matrix(0.14814814814814817,0,0,0.14814814814814817,29.629629629629633,0)" xlink:href="#bn"/><use transform="matrix(0.14814814814814817,0,0,0.14814814814814817,62.07407407407408,0)" xlink:href="#bW"/><use transform="matrix(0.14814814814814817,0,0,0.14814814814814817,94.51851851851853,0)" xlink:href="#bO"/><use transform="matrix(0.14814814814814817,0,0,0.14814814814814817,109.33333333333334,0)" xlink:href="#bp"/></g><g id="ab"><use transform="matrix(0.14814814814814817,0,0,0.14814814814814817,0,0)" xlink:href="#bp"/><use transform="matrix(0.14814814814814817,0,0,0.14814814814814817,17.629629629629633,0)" xlink:href="#bC"/><use transform="matrix(0.14814814814814817,0,0,0.14814814814814817,38.37037037037038,0)" xlink:href="#bs"/><use transform="matrix(0.14814814814814817,0,0,0.14814814814814817,68.00000000000001,0)" xlink:href="#bs"/><use transform="matrix(0.14814814814814817,0,0,0.14814814814814817,97.62962962962965,0)" xlink:href="#br"/></g><g id="ac"><use transform="matrix(0.14814814814814817,0,0,0.14814814814814817,0,0)" xlink:href="#bE"/><use transform="matrix(0.14814814814814817,0,0,0.14814814814814817,29.629629629629633,0)" xlink:href="#cl"/></g><g id="ad"><use transform="matrix(0.14814814814814817,0,0,0.14814814814814817,0,0)" xlink:href="#bi"/><use transform="matrix(0.14814814814814817,0,0,0.14814814814814817,41.48148148148149,0)" xlink:href="#bq"/><use transform="matrix(0.14814814814814817,0,0,0.14814814814814817,73.92592592592594,0)" xlink:href="#br"/><use transform="matrix(0.14814814814814817,0,0,0.14814814814814817,103.55555555555557,0)" xlink:href="#bs"/><use transform="matrix(0.14814814814814817,0,0,0.14814814814814817,133.18518518518522,0)" xlink:href="#bC"/><use transform="matrix(0.14814814814814817,0,0,0.14814814814814817,153.92592592592595,0)" xlink:href="#bV"/><use transform="matrix(0.14814814814814817,0,0,0.14814814814814817,183.5555555555556,0)" xlink:href="#bo"/><use transform="matrix(0.14814814814814817,0,0,0.14814814814814817,213.18518518518522,0)" xlink:href="#bp"/><use transform="matrix(0.14814814814814817,0,0,0.14814814814814817,230.81481481481484,0)" xlink:href="#bD"/><use transform="matrix(0.14814814814814817,0,0,0.14814814814814817,245.62962962962968,0)" xlink:href="#bM"/><use transform="matrix(0.14814814814814817,0,0,0.14814814814814817,278.0740740740741,0)" xlink:href="#bw"/><use transform="matrix(0.14814814814814817,0,0,0.14814814814814817,310.51851851851853,0)" xlink:href="#bo"/><use transform="matrix(0.14814814814814817,0,0,0.14814814814814817,340.14814814814815,0)" xlink:href="#bO"/></g><g id="ae"><use transform="matrix(0.14814814814814817,0,0,0.14814814814814817,0,0)" xlink:href="#bG"/><use transform="matrix(0.14814814814814817,0,0,0.14814814814814817,29.629629629629633,0)" xlink:href="#cl"/></g><g id="af"><use transform="matrix(0.14814814814814817,0,0,0.14814814814814817,0,0)" xlink:href="#bv"/><use transform="matrix(0.14814814814814817,0,0,0.14814814814814817,38.370370370370374,0)" xlink:href="#bo"/><use transform="matrix(0.14814814814814817,0,0,0.14814814814814817,68,0)" xlink:href="#bp"/><use transform="matrix(0.14814814814814817,0,0,0.14814814814814817,85.62962962962965,0)" xlink:href="#bW"/><use transform="matrix(0.14814814814814817,0,0,0.14814814814814817,118.07407407407408,0)" xlink:href="#bC"/><use transform="matrix(0.14814814814814817,0,0,0.14814814814814817,138.8148148148148,0)" xlink:href="#bo"/><use transform="matrix(0.14814814814814817,0,0,0.14814814814814817,168.44444444444446,0)" xlink:href="#bO"/></g><g id="ag"><use transform="matrix(0.14814814814814817,0,0,0.14814814814814817,0,0)" xlink:href="#bQ"/><use transform="matrix(0.14814814814814817,0,0,0.14814814814814817,32.44444444444445,0)" xlink:href="#bo"/><use transform="matrix(0.14814814814814817,0,0,0.14814814814814817,62.07407407407408,0)" xlink:href="#bq"/><use transform="matrix(0.14814814814814817,0,0,0.14814814814814817,94.51851851851853,0)" xlink:href="#bD"/><use transform="matrix(0.14814814814814817,0,0,0.14814814814814817,109.33333333333334,0)" xlink:href="#bp"/><use transform="matrix(0.14814814814814817,0,0,0.14814814814814817,126.96296296296298,0)" xlink:href="#bo"/><use transform="matrix(0.14814814814814817,0,0,0.14814814814814817,156.5925925925926,0)" xlink:href="#bp"/><use transform="matrix(0.14814814814814817,0,0,0.14814814814814817,174.22222222222226,0)" xlink:href="#br"/></g><g id="ah"><use transform="matrix(0.14814814814814817,0,0,0.14814814814814817,0,0)" xlink:href="#bY"/><use transform="matrix(0.14814814814814817,0,0,0.14814814814814817,29.629629629629633,0)" xlink:href="#bz"/></g><g id="ai"><use transform="matrix(0.14814814814814817,0,0,0.14814814814814817,0,0)" xlink:href="#bw"/><use transform="matrix(0.10370370370370371,0,0,0.10370370370370371,32.44444444444445,7.466666666666668)" xlink:href="#bp"/><use transform="matrix(0.10370370370370371,0,0,0.10370370370370371,44.78518518518519,7.466666666666668)" xlink:href="#bC"/><use transform="matrix(0.10370370370370371,0,0,0.10370370370370371,59.30370370370371,7.466666666666668)" xlink:href="#bo"/><use transform="matrix(0.10370370370370371,0,0,0.10370370370370371,80.04444444444445,7.466666666666668)" xlink:href="#bD"/><use transform="matrix(0.10370370370370371,0,0,0.10370370370370371,90.41481481481482,7.466666666666668)" xlink:href="#bp"/><use transform="matrix(0.10370370370370371,0,0,0.10370370370370371,102.75555555555556,7.466666666666668)" xlink:href="#br"/></g><use transform="matrix(0.14814814814814817,0,0,0.14814814814814817,0,0)" xlink:href="#bw" id="an"/><use transform="matrix(0.14814814814814817,0,0,0.14814814814814817,0,0)" xlink:href="#by" id="ao"/><g id="ap"><use transform="matrix(0.14814814814814817,0,0,0.14814814814814817,0,0)" xlink:href="#bJ"/><use transform="matrix(0.14814814814814817,0,0,0.14814814814814817,29.629629629629633,0)" xlink:href="#bE"/></g><g id="aq"><use transform="matrix(0.14814814814814817,0,0,0.14814814814814817,0,0)" xlink:href="#bA"/><use transform="matrix(0.14814814814814817,0,0,0.14814814814814817,29.629629629629633,0)" xlink:href="#bJ"/><use transform="matrix(0.14814814814814817,0,0,0.14814814814814817,59.25925925925927,0)" xlink:href="#bY"/></g><path fill="#333" d="M128 0H69L1-190h53L99-40l48-150h52" id="cm"/><use transform="matrix(0.04938271604938272,0,0,0.04938271604938272,0,0)" xlink:href="#cm" id="ar"/><g id="as"><use transform="matrix(0.14814814814814817,0,0,0.14814814814814817,0,0)" xlink:href="#bj"/><use transform="matrix(0.14814814814814817,0,0,0.14814814814814817,35.55555555555556,0)" xlink:href="#bx"/><use transform="matrix(0.14814814814814817,0,0,0.14814814814814817,68,0)" xlink:href="#bs"/><use transform="matrix(0.14814814814814817,0,0,0.14814814814814817,97.62962962962962,0)" xlink:href="#bX"/><use transform="matrix(0.14814814814814817,0,0,0.14814814814814817,127.25925925925925,0)" xlink:href="#bD"/><use transform="matrix(0.14814814814814817,0,0,0.14814814814814817,142.07407407407408,0)" xlink:href="#bs"/><use transform="matrix(0.14814814814814817,0,0,0.14814814814814817,171.7037037037037,0)" xlink:href="#br"/></g><path d="M231 0h-52l-39-155L100 0H48L-1-190h46L77-45c9-52 24-97 36-145h53l37 145 32-145h46" id="cn"/><g id="at"><use transform="matrix(0.14814814814814817,0,0,0.14814814814814817,0,0)" xlink:href="#cn"/><use transform="matrix(0.14814814814814817,0,0,0.14814814814814817,41.48148148148149,0)" xlink:href="#bD"/><use transform="matrix(0.14814814814814817,0,0,0.14814814814814817,56.296296296296305,0)" xlink:href="#bp"/><use transform="matrix(0.14814814814814817,0,0,0.14814814814814817,73.92592592592594,0)" xlink:href="#bQ"/></g><g id="au"><use transform="matrix(0.14814814814814817,0,0,0.14814814814814817,0,0)" xlink:href="#bX"/><use transform="matrix(0.14814814814814817,0,0,0.14814814814814817,29.629629629629633,0)" xlink:href="#bM"/><use transform="matrix(0.14814814814814817,0,0,0.14814814814814817,62.07407407407408,0)" xlink:href="#bN"/><use transform="matrix(0.14814814814814817,0,0,0.14814814814814817,109.4814814814815,0)" xlink:href="#bx"/><use transform="matrix(0.14814814814814817,0,0,0.14814814814814817,141.92592592592595,0)" xlink:href="#bO"/><use transform="matrix(0.14814814814814817,0,0,0.14814814814814817,156.74074074074076,0)" xlink:href="#bs"/><use transform="matrix(0.14814814814814817,0,0,0.14814814814814817,186.37037037037038,0)" xlink:href="#bp"/><use transform="matrix(0.14814814814814817,0,0,0.14814814814814817,204,0)" xlink:href="#bs"/></g><g id="av"><use transform="matrix(0.14814814814814817,0,0,0.14814814814814817,0,0)" xlink:href="#bp"/><use transform="matrix(0.14814814814814817,0,0,0.14814814814814817,17.629629629629633,0)" xlink:href="#bC"/><use transform="matrix(0.14814814814814817,0,0,0.14814814814814817,38.37037037037038,0)" xlink:href="#bo"/><use transform="matrix(0.14814814814814817,0,0,0.14814814814814817,68.00000000000001,0)" xlink:href="#bD"/><use transform="matrix(0.14814814814814817,0,0,0.14814814814814817,82.81481481481484,0)" xlink:href="#bp"/></g><g id="aw"><use transform="matrix(0.14814814814814817,0,0,0.14814814814814817,0,0)" xlink:href="#bw"/><use transform="matrix(0.10370370370370371,0,0,0.10370370370370371,32.44444444444445,7.466666666666668)" xlink:href="#br"/><use transform="matrix(0.10370370370370371,0,0,0.10370370370370371,53.1851851851852,7.466666666666668)" xlink:href="#bx"/><use transform="matrix(0.10370370370370371,0,0,0.10370370370370371,75.8962962962963,7.466666666666668)" xlink:href="#bx"/></g><use transform="matrix(0.14814814814814817,0,0,0.14814814814814817,0,0)" xlink:href="#by" id="ax"/><use transform="matrix(0.14814814814814817,0,0,0.14814814814814817,0,0)" xlink:href="#bA" id="ay"/><g id="az"><use transform="matrix(0.14814814814814817,0,0,0.14814814814814817,0,0)" xlink:href="#bF"/><use transform="matrix(0.14814814814814817,0,0,0.14814814814814817,29.629629629629633,0)" xlink:href="#bY"/></g><g id="aA"><use transform="matrix(0.14814814814814817,0,0,0.14814814814814817,0,0)" xlink:href="#bF"/><use transform="matrix(0.14814814814814817,0,0,0.14814814814814817,29.629629629629633,0)" xlink:href="#bT"/><use transform="matrix(0.14814814814814817,0,0,0.14814814814814817,59.25925925925927,0)" xlink:href="#bz"/></g><g id="aB"><use transform="matrix(0.14814814814814817,0,0,0.14814814814814817,0,0)" xlink:href="#bE"/><use transform="matrix(0.14814814814814817,0,0,0.14814814814814817,29.629629629629633,0)" xlink:href="#bG"/><use transform="matrix(0.14814814814814817,0,0,0.14814814814814817,59.25925925925927,0)" xlink:href="#bA"/></g><g id="aC"><use transform="matrix(0.14814814814814817,0,0,0.14814814814814817,0,0)" xlink:href="#bA"/><use transform="matrix(0.14814814814814817,0,0,0.14814814814814817,29.629629629629633,0)" xlink:href="#bA"/><use transform="matrix(0.14814814814814817,0,0,0.14814814814814817,59.25925925925927,0)" xlink:href="#bz"/><use transform="matrix(0.14814814814814817,0,0,0.14814814814814817,88.8888888888889,0)" xlink:href="#bJ"/></g><g id="aD"><use transform="matrix(0.14814814814814817,0,0,0.14814814814814817,0,0)" xlink:href="#bj"/><use transform="matrix(0.14814814814814817,0,0,0.14814814814814817,35.55555555555556,0)" xlink:href="#bW"/><use transform="matrix(0.14814814814814817,0,0,0.14814814814814817,68,0)" xlink:href="#bq"/><use transform="matrix(0.14814814814814817,0,0,0.14814814814814817,100.44444444444446,0)" xlink:href="#br"/><use transform="matrix(0.14814814814814817,0,0,0.14814814814814817,130.07407407407408,0)" xlink:href="#bs"/><use transform="matrix(0.14814814814814817,0,0,0.14814814814814817,159.7037037037037,0)" xlink:href="#bp"/></g><g id="aE"><use transform="matrix(0.14814814814814817,0,0,0.14814814814814817,0,0)" xlink:href="#br"/><use transform="matrix(0.14814814814814817,0,0,0.14814814814814817,29.629629629629633,0)" xlink:href="#bx"/><use transform="matrix(0.14814814814814817,0,0,0.14814814814814817,62.07407407407408,0)" xlink:href="#bs"/><use transform="matrix(0.14814814814814817,0,0,0.14814814814814817,91.70370370370371,0)" xlink:href="#bX"/><use transform="matrix(0.14814814814814817,0,0,0.14814814814814817,121.33333333333334,0)" xlink:href="#bD"/><use transform="matrix(0.14814814814814817,0,0,0.14814814814814817,136.14814814814818,0)" xlink:href="#bs"/><use transform="matrix(0.14814814814814817,0,0,0.14814814814814817,165.77777777777783,0)" xlink:href="#br"/></g><g id="aF"><use transform="matrix(0.14814814814814817,0,0,0.14814814814814817,0,0)" xlink:href="#cn"/><use transform="matrix(0.14814814814814817,0,0,0.14814814814814817,41.48148148148149,0)" xlink:href="#bD"/><use transform="matrix(0.14814814814814817,0,0,0.14814814814814817,56.296296296296305,0)" xlink:href="#bp"/><use transform="matrix(0.14814814814814817,0,0,0.14814814814814817,73.92592592592594,0)" xlink:href="#bQ"/></g><g id="aG"><use transform="matrix(0.14814814814814817,0,0,0.14814814814814817,0,0)" xlink:href="#bp"/><use transform="matrix(0.14814814814814817,0,0,0.14814814814814817,17.629629629629633,0)" xlink:href="#bC"/><use transform="matrix(0.14814814814814817,0,0,0.14814814814814817,38.37037037037038,0)" xlink:href="#bo"/><use transform="matrix(0.14814814814814817,0,0,0.14814814814814817,68.00000000000001,0)" xlink:href="#bD"/><use transform="matrix(0.14814814814814817,0,0,0.14814814814814817,82.81481481481484,0)" xlink:href="#bp"/></g><g id="aH"><use transform="matrix(0.14814814814814817,0,0,0.14814814814814817,0,0)" xlink:href="#cb"/><use transform="matrix(0.14814814814814817,0,0,0.14814814814814817,17.629629629629633,0)" xlink:href="#bM"/><use transform="matrix(0.14814814814814817,0,0,0.14814814814814817,50.07407407407408,0)" xlink:href="#bC"/></g><use transform="matrix(0.14814814814814817,0,0,0.14814814814814817,0,0)" xlink:href="#bA" id="aI"/><g id="aJ"><use transform="matrix(0.14814814814814817,0,0,0.14814814814814817,0,0)" xlink:href="#bW"/><use transform="matrix(0.14814814814814817,0,0,0.14814814814814817,32.44444444444445,0)" xlink:href="#bw"/><use transform="matrix(0.14814814814814817,0,0,0.14814814814814817,64.8888888888889,0)" xlink:href="#bX"/><use transform="matrix(0.14814814814814817,0,0,0.14814814814814817,94.51851851851853,0)" xlink:href="#bM"/><use transform="matrix(0.14814814814814817,0,0,0.14814814814814817,126.96296296296299,0)" xlink:href="#bC"/><use transform="matrix(0.14814814814814817,0,0,0.14814814814814817,147.70370370370372,0)" xlink:href="#bC"/><use transform="matrix(0.14814814814814817,0,0,0.14814814814814817,168.44444444444446,0)" xlink:href="#bs"/><use transform="matrix(0.14814814814814817,0,0,0.14814814814814817,198.07407407407408,0)" xlink:href="#bO"/><use transform="matrix(0.14814814814814817,0,0,0.14814814814814817,212.88888888888889,0)" xlink:href="#bo"/><use transform="matrix(0.14814814814814817,0,0,0.14814814814814817,242.5185185185185,0)" xlink:href="#bp"/><use transform="matrix(0.14814814814814817,0,0,0.14814814814814817,260.14814814814815,0)" xlink:href="#bs"/><use transform="matrix(0.14814814814814817,0,0,0.14814814814814817,289.77777777777777,0)" xlink:href="#bn"/></g><g id="aK"><use transform="matrix(0.14814814814814817,0,0,0.14814814814814817,0,0)" xlink:href="#bp"/><use transform="matrix(0.14814814814814817,0,0,0.14814814814814817,17.629629629629633,0)" xlink:href="#bC"/><use transform="matrix(0.14814814814814817,0,0,0.14814814814814817,38.37037037037038,0)" xlink:href="#bo"/><use transform="matrix(0.14814814814814817,0,0,0.14814814814814817,68.00000000000001,0)" xlink:href="#bD"/><use transform="matrix(0.14814814814814817,0,0,0.14814814814814817,82.81481481481484,0)" xlink:href="#bp"/><use transform="matrix(0.14814814814814817,0,0,0.14814814814814817,100.44444444444447,0)" xlink:href="#br"/></g><g id="aL"><use transform="matrix(0.14814814814814817,0,0,0.14814814814814817,0,0)" xlink:href="#bL"/><use transform="matrix(0.14814814814814817,0,0,0.14814814814814817,38.370370370370374,0)" xlink:href="#bM"/><use transform="matrix(0.14814814814814817,0,0,0.14814814814814817,70.81481481481482,0)" xlink:href="#bN"/><use transform="matrix(0.14814814814814817,0,0,0.14814814814814817,118.22222222222221,0)" xlink:href="#bq"/><use transform="matrix(0.14814814814814817,0,0,0.14814814814814817,150.66666666666669,0)" xlink:href="#bD"/><use transform="matrix(0.14814814814814817,0,0,0.14814814814814817,165.4814814814815,0)" xlink:href="#bw"/><use transform="matrix(0.14814814814814817,0,0,0.14814814814814817,197.92592592592595,0)" xlink:href="#bs"/><use transform="matrix(0.14814814814814817,0,0,0.14814814814814817,227.5555555555556,0)" xlink:href="#bn"/></g><g id="aM"><use transform="matrix(0.14814814814814817,0,0,0.14814814814814817,0,0)" xlink:href="#bp"/><use transform="matrix(0.14814814814814817,0,0,0.14814814814814817,17.629629629629633,0)" xlink:href="#bC"/><use transform="matrix(0.14814814814814817,0,0,0.14814814814814817,38.37037037037038,0)" xlink:href="#bo"/><use transform="matrix(0.14814814814814817,0,0,0.14814814814814817,68.00000000000001,0)" xlink:href="#bD"/><use transform="matrix(0.14814814814814817,0,0,0.14814814814814817,82.81481481481484,0)" xlink:href="#bp"/></g><g id="aN"><use transform="matrix(0.14814814814814817,0,0,0.14814814814814817,0,0)" xlink:href="#bn"/><use transform="matrix(0.14814814814814817,0,0,0.14814814814814817,32.44444444444445,0)" xlink:href="#bo"/><use transform="matrix(0.14814814814814817,0,0,0.14814814814814817,62.07407407407408,0)" xlink:href="#bp"/><use transform="matrix(0.14814814814814817,0,0,0.14814814814814817,79.70370370370374,0)" xlink:href="#bo"/><use transform="matrix(0.14814814814814817,0,0,0.14814814814814817,109.33333333333337,0)" xlink:href="#br"/><use transform="matrix(0.14814814814814817,0,0,0.14814814814814817,138.962962962963,0)" xlink:href="#bs"/><use transform="matrix(0.14814814814814817,0,0,0.14814814814814817,168.5925925925926,0)" xlink:href="#bp"/></g><g id="aO"><use transform="matrix(0.14814814814814817,0,0,0.14814814814814817,0,0)" xlink:href="#bw"/><use transform="matrix(0.10370370370370371,0,0,0.10370370370370371,32.44444444444445,7.466666666666668)" xlink:href="#bp"/><use transform="matrix(0.10370370370370371,0,0,0.10370370370370371,44.78518518518519,7.466666666666668)" xlink:href="#bC"/><use transform="matrix(0.10370370370370371,0,0,0.10370370370370371,59.30370370370371,7.466666666666668)" xlink:href="#bo"/><use transform="matrix(0.10370370370370371,0,0,0.10370370370370371,80.04444444444445,7.466666666666668)" xlink:href="#bD"/><use transform="matrix(0.10370370370370371,0,0,0.10370370370370371,90.41481481481482,7.466666666666668)" xlink:href="#bp"/></g><g id="aP"><use transform="matrix(0.14814814814814817,0,0,0.14814814814814817,0,0)" xlink:href="#bE"/><use transform="matrix(0.14814814814814817,0,0,0.14814814814814817,29.629629629629633,0)" xlink:href="#bF"/><use transform="matrix(0.14814814814814817,0,0,0.14814814814814817,59.25925925925927,0)" xlink:href="#bJ"/></g><g id="aQ"><use transform="matrix(0.14814814814814817,0,0,0.14814814814814817,0,0)" xlink:href="#bB"/><use transform="matrix(0.14814814814814817,0,0,0.14814814814814817,29.629629629629633,0)" xlink:href="#bF"/><use transform="matrix(0.14814814814814817,0,0,0.14814814814814817,59.25925925925927,0)" xlink:href="#bY"/></g><g id="aR"><use transform="matrix(0.14814814814814817,0,0,0.14814814814814817,0,0)" xlink:href="#bL"/><use transform="matrix(0.14814814814814817,0,0,0.14814814814814817,38.370370370370374,0)" xlink:href="#bO"/><use transform="matrix(0.14814814814814817,0,0,0.14814814814814817,53.18518518518519,0)" xlink:href="#bs"/><use transform="matrix(0.14814814814814817,0,0,0.14814814814814817,82.81481481481482,0)" xlink:href="#bo"/><use transform="matrix(0.14814814814814817,0,0,0.14814814814814817,112.44444444444446,0)" xlink:href="#bw"/><use transform="matrix(0.14814814814814817,0,0,0.14814814814814817,144.8888888888889,0)" xlink:href="#bs"/><use transform="matrix(0.14814814814814817,0,0,0.14814814814814817,174.51851851851853,0)" xlink:href="#bn"/></g><g id="aS"><use transform="matrix(0.14814814814814817,0,0,0.14814814814814817,0,0)" xlink:href="#bw"/><use transform="matrix(0.14814814814814817,0,0,0.14814814814814817,32.44444444444445,0)" xlink:href="#bo"/><use transform="matrix(0.14814814814814817,0,0,0.14814814814814817,62.07407407407408,0)" xlink:href="#bN"/><use transform="matrix(0.14814814814814817,0,0,0.14814814814814817,109.4814814814815,0)" xlink:href="#bs"/><use transform="matrix(0.14814814814814817,0,0,0.14814814814814817,139.11111111111114,0)" xlink:href="#br"/><use transform="matrix(0.14814814814814817,0,0,0.14814814814814817,168.74074074074076,0)" xlink:href="#bP"/></g><g id="aU"><use transform="matrix(0.14814814814814817,0,0,0.14814814814814817,0,0)" xlink:href="#bH"/><use transform="matrix(0.14814814814814817,0,0,0.14814814814814817,32.44444444444445,0)" xlink:href="#bl"/><use transform="matrix(0.14814814814814817,0,0,0.14814814814814817,68.8888888888889,0)" xlink:href="#bI"/></g><g id="aV"><use transform="matrix(0.14814814814814817,0,0,0.14814814814814817,0,0)" xlink:href="#bn"/><use transform="matrix(0.14814814814814817,0,0,0.14814814814814817,32.44444444444445,0)" xlink:href="#bo"/><use transform="matrix(0.14814814814814817,0,0,0.14814814814814817,62.07407407407408,0)" xlink:href="#bp"/><use transform="matrix(0.14814814814814817,0,0,0.14814814814814817,79.70370370370374,0)" xlink:href="#bo"/></g><g id="aW"><use transform="matrix(0.14814814814814817,0,0,0.14814814814814817,0,0)" xlink:href="#bt"/><use transform="matrix(0.14814814814814817,0,0,0.14814814814814817,38.370370370370374,0)" xlink:href="#bD"/><use transform="matrix(0.14814814814814817,0,0,0.14814814814814817,53.18518518518519,0)" xlink:href="#bs"/><use transform="matrix(0.14814814814814817,0,0,0.14814814814814817,82.81481481481482,0)" xlink:href="#bw"/></g><g id="aX"><use transform="matrix(0.14814814814814817,0,0,0.14814814814814817,0,0)" xlink:href="#bw"/><use transform="matrix(0.10370370370370371,0,0,0.10370370370370371,32.44444444444445,7.466666666666668)" xlink:href="#br"/><use transform="matrix(0.10370370370370371,0,0,0.10370370370370371,53.1851851851852,7.466666666666668)" xlink:href="#bx"/><use transform="matrix(0.10370370370370371,0,0,0.10370370370370371,75.8962962962963,7.466666666666668)" xlink:href="#bx"/></g><g id="aY"><use transform="matrix(0.14814814814814817,0,0,0.14814814814814817,0,0)" xlink:href="#bY"/><use transform="matrix(0.14814814814814817,0,0,0.14814814814814817,29.629629629629633,0)" xlink:href="#bA"/></g><g id="aZ"><use transform="matrix(0.14814814814814817,0,0,0.14814814814814817,0,0)" xlink:href="#bw"/><use transform="matrix(0.10370370370370371,0,0,0.10370370370370371,32.44444444444445,7.466666666666668)" xlink:href="#br"/><use transform="matrix(0.10370370370370371,0,0,0.10370370370370371,53.1851851851852,7.466666666666668)" xlink:href="#bx"/><use transform="matrix(0.10370370370370371,0,0,0.10370370370370371,75.8962962962963,7.466666666666668)" xlink:href="#bx"/></g><g id="ba"><use transform="matrix(0.14814814814814817,0,0,0.14814814814814817,0,0)" xlink:href="#bY"/><use transform="matrix(0.14814814814814817,0,0,0.14814814814814817,29.629629629629633,0)" xlink:href="#bB"/></g><g id="bb"><use transform="matrix(0.14814814814814817,0,0,0.14814814814814817,0,0)" xlink:href="#bw"/><use transform="matrix(0.10370370370370371,0,0,0.10370370370370371,32.44444444444445,7.466666666666668)" xlink:href="#bp"/><use transform="matrix(0.10370370370370371,0,0,0.10370370370370371,44.78518518518519,7.466666666666668)" xlink:href="#bC"/><use transform="matrix(0.10370370370370371,0,0,0.10370370370370371,59.30370370370371,7.466666666666668)" xlink:href="#bo"/><use transform="matrix(0.10370370370370371,0,0,0.10370370370370371,80.04444444444445,7.466666666666668)" xlink:href="#bD"/><use transform="matrix(0.10370370370370371,0,0,0.10370370370370371,90.41481481481482,7.466666666666668)" xlink:href="#bp"/></g><use transform="matrix(0.14814814814814817,0,0,0.14814814814814817,0,0)" xlink:href="#bJ" id="bc"/><g id="bd"><use transform="matrix(0.14814814814814817,0,0,0.14814814814814817,0,0)" xlink:href="#bw"/><use transform="matrix(0.10370370370370371,0,0,0.10370370370370371,32.44444444444445,7.466666666666668)" xlink:href="#bp"/><use transform="matrix(0.10370370370370371,0,0,0.10370370370370371,44.78518518518519,7.466666666666668)" xlink:href="#bC"/><use transform="matrix(0.10370370370370371,0,0,0.10370370370370371,59.30370370370371,7.466666666666668)" xlink:href="#bo"/><use transform="matrix(0.10370370370370371,0,0,0.10370370370370371,80.04444444444445,7.466666666666668)" xlink:href="#bD"/><use transform="matrix(0.10370370370370371,0,0,0.10370370370370371,90.41481481481482,7.466666666666668)" xlink:href="#bp"/></g><use transform="matrix(0.14814814814814817,0,0,0.14814814814814817,0,0)" xlink:href="#bw" id="be"/><g id="bf"><use transform="matrix(0.14814814814814817,0,0,0.14814814814814817,0,0)" xlink:href="#bE"/><use transform="matrix(0.14814814814814817,0,0,0.14814814814814817,29.629629629629633,0)" xlink:href="#bE"/><use transform="matrix(0.14814814814814817,0,0,0.14814814814814817,59.25925925925927,0)" xlink:href="#bF"/></g><g id="bg"><use transform="matrix(0.14814814814814817,0,0,0.14814814814814817,0,0)" xlink:href="#bw"/><use transform="matrix(0.14814814814814817,0,0,0.14814814814814817,32.44444444444445,0)" xlink:href="#by"/></g><g id="bh"><use transform="matrix(0.14814814814814817,0,0,0.14814814814814817,0,0)" xlink:href="#bz"/><use transform="matrix(0.14814814814814817,0,0,0.14814814814814817,29.629629629629633,0)" xlink:href="#bE"/><use transform="matrix(0.14814814814814817,0,0,0.14814814814814817,59.25925925925927,0)" xlink:href="#bz"/><use transform="matrix(0.14814814814814817,0,0,0.14814814814814817,88.8888888888889,0)" xlink:href="#bF"/><use transform="matrix(0.14814814814814817,0,0,0.14814814814814817,118.51851851851853,0)" xlink:href="#bA"/><use transform="matrix(0.14814814814814817,0,0,0.14814814814814817,148.14814814814815,0)" xlink:href="#bG"/><use transform="matrix(0.14814814814814817,0,0,0.14814814814814817,177.77777777777777,0)" xlink:href="#bA"/></g></defs></g></svg>